<?xml version="1.0" encoding="UTF-8" standalone="no"?>
<svg
   version="1.1"
   width="1040"
   height="1040"
   id="svg10"
   sodipodi:docname="md.svg"
   inkscape:version="1.2.2 (b0a8486541, 2022-12-01)"
   xmlns:inkscape="http://www.inkscape.org/namespaces/inkscape"
   xmlns:sodipodi="http://sodipodi.sourceforge.net/DTD/sodipodi-0.dtd"
   xmlns="http://www.w3.org/2000/svg"
   xmlns:svg="http://www.w3.org/2000/svg">
  <defs
     id="defs14" />
  <sodipodi:namedview
     id="namedview12"
     pagecolor="#ffffff"
     bordercolor="#000000"
     borderopacity="0.25"
     inkscape:showpageshadow="2"
     inkscape:pageopacity="0.0"
     inkscape:pagecheckerboard="0"
     inkscape:deskcolor="#d1d1d1"
     showgrid="false"
     inkscape:zoom="0.5"
     inkscape:cx="529"
     inkscape:cy="773"
     inkscape:window-width="1920"
     inkscape:window-height="1008"
     inkscape:window-x="0"
     inkscape:window-y="0"
     inkscape:window-maximized="1"
     inkscape:current-layer="svg10" />
  <circle
     style="fill:#214ce5;fill-opacity:1;stroke:#767676;stroke-width:1.03896;stroke-opacity:0"
     id="path226"
     cx="520"
     cy="520"
     r="519.48053" />
  <path
     id="path226-3"
     style="fill:#0f0f50;fill-opacity:0.913068;stroke:#767676;stroke-width:0.874124;stroke-opacity:0"
     d="M 513.57617 82.527344 C 512.84409 82.535744 512.11293 82.544374 511.38086 82.552734 C 505.72142 82.743322 500.06072 82.917248 494.41016 83.300781 C 489.55691 83.567234 484.71384 83.995645 479.87305 84.425781 C 474.55186 84.964987 469.23296 85.52489 463.93359 86.251953 C 459.17754 86.85129 454.44148 87.610658 449.70703 88.357422 C 444.4686 89.256525 439.23503 90.179253 434.03125 91.263672 C 429.29382 92.193341 424.58901 93.28724 419.88477 94.369141 C 414.72252 95.628948 409.56591 96.908822 404.45117 98.351562 C 399.75791 99.617109 395.10669 101.03944 390.45898 102.46094 C 385.39472 104.07374 380.34004 105.71355 375.33594 107.50586 C 370.77398 109.08473 366.26566 110.81543 361.75781 112.54102 C 356.84883 114.48867 351.9505 116.46114 347.11328 118.58203 C 342.63984 120.48385 338.22999 122.53573 333.82227 124.58398 C 329.02949 126.88097 324.24952 129.20371 319.54102 131.66992 C 315.24058 133.86402 311.01398 136.19986 306.78711 138.53125 C 302.19532 141.13845 297.61515 143.76694 293.11914 146.53711 C 288.98038 149.02306 284.92577 151.64696 280.86914 154.26367 C 276.41332 157.22001 271.97191 160.19613 267.62305 163.30859 C 263.69298 166.05483 259.85554 168.93609 256.01758 171.80859 C 251.80328 175.0466 247.60273 178.2993 243.50586 181.68555 C 239.72391 184.7391 236.04461 187.9203 232.36523 191.0957 C 228.3847 194.61702 224.42305 198.15687 220.57031 201.81836 C 217.05963 205.08329 213.65505 208.46375 210.25 211.83789 C 206.501 215.65114 202.76854 219.4781 199.15625 223.42188 C 195.87893 226.92219 192.71704 230.53112 189.55469 234.13477 C 186.10009 238.17258 182.66222 242.22388 179.35352 246.38281 C 176.28364 250.15171 173.33917 254.0218 170.39453 257.88867 C 167.2454 262.12844 164.11745 266.38523 161.12305 270.73633 C 158.34016 274.68129 155.69051 278.71749 153.03711 282.75 C 150.15613 287.25497 147.29331 291.77298 144.57227 296.37695 C 142.08727 300.4768 139.73999 304.65763 137.39062 308.83594 C 134.8439 313.50052 132.31524 318.17512 129.93555 322.92773 C 127.72308 327.21937 125.6561 331.58589 123.58594 335.94727 C 121.36852 340.77603 119.1714 345.61247 117.12695 350.51758 C 115.20495 354.983 113.42886 359.51017 111.6582 364.03711 C 109.79088 368.97664 107.94532 373.92593 106.25586 378.92969 C 104.64802 383.51751 103.19177 388.1572 101.73633 392.79492 C 100.21514 397.85206 98.720678 402.91666 97.380859 408.02539 C 96.102784 412.68048 94.9806 417.37861 93.855469 422.07227 C 92.681778 427.25525 91.528238 432.44175 90.541016 437.66406 C 89.588037 442.39736 88.793634 447.16224 87.998047 451.92383 C 87.182133 457.20862 86.38621 462.4957 85.757812 467.80664 C 85.142073 472.56163 84.686545 477.33628 84.21875 482.10742 C 83.772535 487.40305 83.349479 492.70108 83.091797 498.00977 C 82.802244 502.82839 82.676237 507.6557 82.541016 512.48047 C 82.462506 517.82785 82.408002 523.17605 82.517578 528.52344 C 82.563338 533.31765 82.771651 538.10875 82.970703 542.89844 C 83.262378 548.23802 83.575667 553.5759 84.056641 558.90234 C 84.434983 563.68219 84.976546 568.44971 85.503906 573.21484 C 86.159747 578.48801 86.84085 583.75681 87.683594 589.00391 C 88.393164 593.7797 89.26546 598.53026 90.132812 603.2793 C 91.152491 608.49483 92.194062 613.70666 93.400391 618.88281 C 94.448942 623.62888 95.650758 628.34053 96.855469 633.04883 C 98.233576 638.18151 99.636869 643.30786 101.19727 648.38867 C 102.55441 652.98719 104.06266 657.5397 105.56641 662.0918 C 107.29724 667.11617 109.04746 672.13391 110.95703 677.09375 C 112.63855 681.61932 114.47062 686.08787 116.30078 690.55469 C 118.37575 695.44691 120.46916 700.33051 122.7168 705.14648 C 124.70707 709.5456 126.84655 713.87651 128.98047 718.20703 C 131.38908 722.94385 133.81507 727.6715 136.39062 732.32031 C 138.67972 736.57059 141.11336 740.7421 143.54102 744.91406 C 146.28858 749.50234 149.05877 754.07555 151.9668 758.56445 C 154.52881 762.61635 157.22949 766.5819 159.91992 770.54883 C 162.96021 774.90829 166.01555 779.25605 169.21094 783.50391 C 172.06787 787.39517 175.05383 791.19087 178.0332 794.98828 C 181.36754 799.12635 184.71702 803.25264 188.19727 807.26953 C 191.33743 810.98024 194.60068 814.58495 197.86133 818.18945 C 201.47335 822.08859 205.10883 825.96758 208.85742 829.73633 C 212.22444 833.19468 215.70493 836.53954 219.18164 839.88672 C 223.03129 843.50294 226.89837 847.10118 230.875 850.57812 C 234.47293 853.7965 238.17791 856.89347 241.87695 859.99414 C 245.99448 863.3547 250.12638 866.6979 254.36133 869.91016 C 258.17341 872.87216 262.08213 875.70917 265.98828 878.54492 C 270.3549 881.63162 274.73543 884.69642 279.20898 887.62695 C 283.21834 890.31628 287.31655 892.87161 291.41016 895.42969 C 295.92278 898.17281 300.4464 900.89814 305.05469 903.47852 C 309.23985 905.88505 313.50567 908.14969 317.76562 910.41992 C 322.51691 912.87342 327.27761 915.30779 332.11328 917.5918 C 336.42569 919.68701 340.80866 921.6366 345.18555 923.5918 C 350.09636 925.71008 355.01493 927.81019 359.99805 929.75391 C 364.44494 931.54491 368.95023 933.18909 373.45117 934.83789 C 378.49645 936.61196 383.54868 938.36494 388.6543 939.95898 C 393.2145 941.43852 397.82247 942.76702 402.42773 944.09766 C 407.55143 945.50869 412.68037 946.89882 417.85156 948.12695 C 422.53489 949.2961 427.2568 950.30971 431.97461 951.32812 C 437.2169 952.38757 442.46315 953.42565 447.74023 954.29883 C 452.49416 955.13773 457.27511 955.82022 462.05273 956.50781 C 467.28875 957.19524 472.52945 957.85441 477.78711 958.35547 C 482.58774 958.86977 487.40424 959.21915 492.21875 959.57227 C 497.5557 959.89812 502.89457 960.20024 508.24023 960.33789 C 513.03203 960.51572 517.82856 960.52863 522.62305 960.55078 C 527.90421 960.50678 533.18418 960.44292 538.46094 960.20898 C 543.35237 960.05097 548.23815 959.7283 553.12109 959.41016 C 558.35257 959.00433 563.58281 958.57391 568.79688 957.98047 C 573.63355 957.48965 578.45276 956.83662 583.26953 956.18359 C 588.55923 955.40033 593.84444 954.59587 599.10352 953.625 C 603.82824 952.80624 608.527 951.83219 613.22266 950.86328 C 618.44549 949.71493 623.66214 948.54469 628.8418 947.21289 C 633.52996 946.06157 638.18019 944.75706 642.82812 943.45508 C 647.92727 941.95967 653.0174 940.43597 658.06055 938.75977 C 662.62683 937.29671 667.14349 935.68415 671.66016 934.07617 C 676.67409 932.21747 681.68147 930.33808 686.62695 928.30273 C 691.08009 926.52615 695.47449 924.60252 699.86914 922.6875 C 704.71234 920.49988 709.54587 918.29456 714.30859 915.93555 C 718.65949 913.84272 722.93972 911.60407 727.2207 909.37305 C 731.93053 906.83981 736.63079 904.28733 741.24805 901.58789 C 745.41345 899.21424 749.49798 896.70191 753.58398 894.19531 C 758.07868 891.36035 762.56208 888.5077 766.95312 885.51367 C 770.97386 882.84074 774.90387 880.03322 778.83594 877.23242 C 783.14979 874.07323 787.44786 870.89317 791.64844 867.58398 C 795.44707 864.65837 799.14747 861.60453 802.84961 858.55859 C 806.93449 855.10789 811.00441 851.64057 814.96484 848.04688 C 818.55222 844.86447 822.03418 841.56268 825.51562 838.26562 C 829.32771 834.56447 833.125 830.84919 836.80273 827.01367 C 840.18575 823.56837 843.45295 820.00905 846.7207 816.45508 C 850.26804 812.49826 853.7961 808.52592 857.20117 804.44531 C 860.33721 800.77452 863.3491 796.99712 866.36328 793.22656 C 869.64755 789.00717 872.91229 784.77581 876.04688 780.44336 C 878.89993 776.58999 881.62226 772.6397 884.34961 768.69727 C 887.31617 764.28778 890.26482 759.86665 893.07227 755.35352 C 895.68745 751.25602 898.16804 747.07353 900.64648 742.89258 C 903.28492 738.31835 905.89931 733.73041 908.37305 729.06445 C 910.69818 724.79541 912.88215 720.44953 915.06641 716.10742 C 917.38209 711.36043 919.67363 706.60266 921.81836 701.77539 C 923.84214 697.35579 925.71808 692.86893 927.59766 688.38672 C 929.59229 683.46119 931.55674 678.52317 933.375 673.5293 C 935.06507 669.04225 936.60308 664.49919 938.14844 659.96094 C 939.80561 654.8768 941.44029 649.78485 942.91602 644.64453 C 944.28926 640.05073 945.50803 635.41193 946.73438 630.77734 C 948.03591 625.59116 949.31207 620.39936 950.42969 615.16992 C 951.49005 610.45945 952.39256 605.71452 953.29883 600.97266 C 954.22714 595.774 955.12691 590.57077 955.86914 585.3418 C 956.6032 580.57032 957.17699 575.77503 957.75195 570.98242 C 958.31924 565.69824 958.87168 560.41301 959.25 555.11133 C 959.64956 550.30079 959.88759 545.47652 960.13281 540.65625 C 960.33396 535.34551 960.51524 530.03389 960.52539 524.71875 C 960.71344 506.43798 959.65647 488.15093 957.53125 469.99609 C 951.58736 419.56861 936.80498 370.19519 914.03711 324.80859 C 891.59059 279.96763 861.37832 239.03557 825.14844 204.36719 C 789.03654 169.76842 746.95684 141.42079 701.32422 120.95312 C 654.33649 99.836152 603.59887 87.098088 552.20898 83.513672 C 539.35494 82.611728 526.46012 82.274434 513.57617 82.527344 z " />
  <text
     xml:space="preserve"
     style="font-size:886.986px;fill:#214ce5;fill-opacity:1;stroke:#767676;stroke-width:73.9158;stroke-opacity:0"
     x="208.08609"
     y="875.13824"
     id="text2111"
     transform="scale(1.0763746,0.92904459)"><tspan
       sodipodi:role="line"
       id="tspan2109"
       x="208.08609"
       y="875.13824"
       style="font-style:normal;font-variant:normal;font-weight:normal;font-stretch:normal;font-family:monospace;-inkscape-font-specification:monospace;fill:#214ce5;fill-opacity:1;stroke-width:73.9158">i</tspan></text>
  <rect
     style="fill:#214ce5;fill-opacity:1;stroke:#767676;stroke-opacity:0"
     id="rect3088"
     width="426.86896"
     height="58.107769"
     x="307.05237"
     y="755.71942" />
  <rect
     style="fill:#214ce5;fill-opacity:1;stroke:#767676;stroke-width:1.13377;stroke-opacity:0"
     id="rect3090"
     width="85.711868"
     height="449.44339"
     x="477.15234"
     y="362.50226" />
  <rect
     style="fill:#214ce5;fill-opacity:1;stroke:#767676;stroke-width:0.996154;stroke-opacity:0"
     id="rect3092"
     width="219.55667"
     height="57.524105"
     x="343.35281"
     y="362.40652" />
  <rect
     style="fill:#214ce5;fill-opacity:1;stroke:#767676;stroke-width:1.15761;stroke-opacity:0"
     id="rect3146"
     width="85.697693"
     height="93.680077"
     x="477.19638"
     y="187.03603" />
</svg>
