<?xml version="1.0" encoding="UTF-8" standalone="no"?>
<svg
   width="800px"
   height="800px"
   viewBox="0 0 64 64"
   fill="none"
   version="1.1"
   id="svg4"
   sodipodi:docname="rust_icon.svg"
   inkscape:version="1.2.2 (b0a8486541, 2022-12-01)"
   xmlns:inkscape="http://www.inkscape.org/namespaces/inkscape"
   xmlns:sodipodi="http://sodipodi.sourceforge.net/DTD/sodipodi-0.dtd"
   xmlns="http://www.w3.org/2000/svg"
   xmlns:svg="http://www.w3.org/2000/svg">
  <defs
     id="defs8" />
  <sodipodi:namedview
     id="namedview6"
     pagecolor="#ffffff"
     bordercolor="#000000"
     borderopacity="0.25"
     inkscape:showpageshadow="2"
     inkscape:pageopacity="0.0"
     inkscape:pagecheckerboard="0"
     inkscape:deskcolor="#d1d1d1"
     showgrid="false"
     inkscape:zoom="0.75395261"
     inkscape:cx="399.22934"
     inkscape:cy="517.93707"
     inkscape:window-width="1920"
     inkscape:window-height="1008"
     inkscape:window-x="0"
     inkscape:window-y="0"
     inkscape:window-maximized="1"
     inkscape:current-layer="svg4" />
  <path
     d="M 55.671336,31.411929 53.65685,30.163942 a 27.854807,27.854718 0 0 0 -0.057,-0.586495 l 1.730989,-1.615483 A 0.68999523,0.689993 0 0 0 55.101341,26.805476 L 52.887355,25.977484 A 25.196825,25.196744 0 0 0 52.714857,25.40599 l 1.379991,-1.918481 A 0.6929952,0.69299297 0 0 0 53.64485,22.39702 l -2.335483,-0.379496 c -0.09,-0.176998 -0.184499,-0.350996 -0.280499,-0.524995 l 0.980993,-2.152478 a 0.68999523,0.689993 0 0 0 -0.655494,-0.98099 l -2.368484,0.0825 a 18.72287,18.72281 0 0 0 -0.374998,-0.452995 l 0.544496,-2.308477 a 0.69149522,0.69149299 0 0 0 -0.833994,-0.833991 l -2.306984,0.542994 c -0.149999,-0.125998 -0.299998,-0.250497 -0.454497,-0.374996 l 0.0825,-2.366976 a 0.68999523,0.689993 0 0 0 -0.980992,-0.655493 l -2.152485,0.98099 A 25.067826,25.067746 0 0 0 41.983932,12.690619 L 41.604434,10.356643 A 0.6929952,0.69299297 0 0 0 40.515442,9.9051471 L 38.595456,11.285133 A 21.464851,21.464782 0 0 0 38.025459,11.112635 L 37.197464,8.8986573 A 0.69149522,0.69149299 0 0 0 36.040973,8.6676597 l -1.61549,1.7339823 c -0.194998,-0.021 -0.389997,-0.042 -0.586496,-0.057 L 32.590995,8.3286631 a 0.6929952,0.69299297 0 0 0 -1.178991,0 l -1.247992,2.0159799 c -0.194999,0.015 -0.391496,0.036 -0.586495,0.057 L 27.962028,8.6691597 a 0.69599518,0.69599294 0 0 0 -1.156492,0.2294976 l -0.827994,2.2139777 c -0.191999,0.0555 -0.382497,0.113999 -0.569996,0.173998 L 23.48756,9.9051471 a 0.68999523,0.689993 0 0 0 -1.090494,0.4499959 l -0.380996,2.335476 c -0.175499,0.0915 -0.349498,0.185998 -0.524997,0.281997 l -2.150985,-0.98099 a 0.68999523,0.689993 0 0 0 -0.980993,0.653993 l 0.0825,2.369976 c -0.152999,0.122999 -0.304499,0.247498 -0.454498,0.374996 l -2.306983,-0.544494 a 0.69599518,0.69599294 0 0 0 -0.835495,0.833991 l 0.544496,2.308477 c -0.127499,0.149998 -0.251998,0.299997 -0.374997,0.452995 l -2.368484,-0.0825 a 0.6929952,0.69299297 0 0 0 -0.655495,0.98099 l 0.980993,2.153978 c -0.0945,0.172499 -0.188999,0.346497 -0.280498,0.524995 L 10.35665,22.39702 a 0.6929952,0.69299297 0 0 0 -0.4514965,1.090489 l 1.3799905,1.918481 c -0.06,0.188998 -0.117,0.379496 -0.1725,0.569994 l -2.2139835,0.829492 a 0.6929952,0.69299297 0 0 0 -0.2294984,1.156488 l 1.7324879,1.615483 c -0.0225,0.194998 -0.042,0.389997 -0.0585,0.586495 l -2.0144856,1.247987 a 0.6929952,0.69299297 0 0 0 0,1.178988 l 2.0144856,1.246487 c 0.0165,0.196498 0.036,0.392996 0.0585,0.587994 l -1.7324879,1.615484 a 0.6929952,0.69299297 0 0 0 0.2294984,1.156488 l 2.2139835,0.827992 c 0.0555,0.191998 0.114,0.382496 0.174,0.569994 l -1.3814905,1.919981 a 0.6929952,0.69299297 0 0 0 0.4514965,1.088988 l 2.333984,0.379497 c 0.0915,0.176998 0.184499,0.352496 0.281998,0.524994 l -0.982493,2.152478 a 0.6929952,0.69299297 0 0 0 0.655495,0.980991 l 2.368484,-0.0825 c 0.122999,0.154499 0.247498,0.304497 0.374997,0.454496 l -0.544496,2.308476 a 0.68999523,0.689993 0 0 0 0.835495,0.832492 l 2.306983,-0.542995 c 0.149999,0.127499 0.301499,0.250498 0.454498,0.373497 l -0.0825,2.369976 a 0.69149522,0.69149299 0 0 0 0.980993,0.653993 l 2.152485,-0.98099 c 0.172499,0.096 0.347998,0.190498 0.524997,0.281997 l 0.379496,2.332476 a 0.69149522,0.69149299 0 0 0 1.090494,0.452996 l 1.918486,-1.382986 c 0.188999,0.06 0.379497,0.119999 0.569996,0.173998 l 0.827994,2.213978 a 0.68999523,0.689993 0 0 0 1.156492,0.229497 l 1.616989,-1.732482 c 0.194999,0.0225 0.389996,0.042 0.586495,0.06 l 1.247992,2.01448 a 0.69449518,0.69449296 0 0 0 1.178991,0 l 1.246492,-2.01598 c 0.196499,-0.0165 0.392998,-0.036 0.587996,-0.0585 l 1.61549,1.732482 a 0.68999523,0.689993 0 0 0 1.154991,-0.229497 l 0.829494,-2.213978 c 0.190499,-0.054 0.380998,-0.113999 0.569997,-0.173998 l 1.919986,1.382986 a 0.69449518,0.69449296 0 0 0 1.088992,-0.452996 l 0.380998,-2.333976 c 0.175498,-0.09 0.349498,-0.185998 0.523497,-0.280497 l 2.152485,0.98099 a 0.69149522,0.69149299 0 0 0 0.980992,-0.655493 l -0.0825,-2.369976 c 0.152999,-0.119999 0.304498,-0.244498 0.454497,-0.371997 l 2.306984,0.542995 a 0.68999523,0.689993 0 0 0 0.833994,-0.832492 l -0.542996,-2.308476 c 0.126,-0.149999 0.250499,-0.299997 0.373498,-0.454496 l 2.369984,0.0825 a 0.68999523,0.689993 0 0 0 0.653994,-0.980991 l -0.980993,-2.152478 c 0.096,-0.172498 0.188999,-0.347996 0.280499,-0.524994 l 2.333983,-0.379497 a 0.68999523,0.689993 0 0 0 0.451498,-1.088988 l -1.379991,-1.919981 a 26.249818,26.249734 0 0 0 0.172498,-0.569994 L 55.10134,37.19737 a 0.68999523,0.689993 0 0 0 0.229498,-1.156488 l -1.732489,-1.615484 c 0.021,-0.194998 0.0405,-0.391496 0.0585,-0.587994 l 2.014486,-1.246487 a 0.6929952,0.69299297 0 0 0 10e-7,-1.178988 z m -13.486407,16.71583 a 1.4279902,1.4279855 0 0 1 0.598496,-2.791471 1.4279902,1.4279855 0 0 1 -0.599996,2.791471 z m -0.685495,-4.630453 a 1.298991,1.2989868 0 0 0 -1.541989,0.99899 L 39.24195,47.835262 A 17.473379,17.473323 0 0 1 32,49.395246 c -2.639982,0 -5.144964,-0.584994 -7.393448,-1.630483 l -0.715496,-3.337466 a 1.298991,1.2989868 0 0 0 -1.54199,-1.00049 l -2.947478,0.632994 a 17.519879,17.519822 0 0 1 -1.52399,-1.795482 h 14.341401 c 0.161999,0 0.269999,-0.03 0.269999,-0.176998 v -5.072949 c 0,-0.148498 -0.108,-0.176998 -0.269999,-0.176998 h -4.193971 v -3.217468 h 4.535967 c 0.413998,0 2.213986,0.118499 2.789981,2.419476 0.18,0.706493 0.575998,3.008969 0.845995,3.745462 0.269998,0.826492 1.367991,2.477975 2.537983,2.477975 h 7.14595 a 1.4654898,1.4654851 0 0 0 0.259499,-0.0255 c -0.494998,0.673493 -1.039493,1.310987 -1.624489,1.904981 l -3.01498,-0.646494 z M 21.665072,48.05726 a 1.4279902,1.4279855 0 0 1 -0.598496,-2.791472 1.428036,1.4280314 0 0 1 0.596996,2.792972 z M 16.224609,25.996984 a 1.4253079,1.4253033 0 1 1 -2.605482,1.156488 1.4253079,1.4253033 0 1 1 2.605482,-1.156488 z m -1.672488,3.96446 3.070479,-1.364987 a 1.301991,1.3019868 0 0 0 0.659996,-1.717482 L 17.6511,25.449489 h 2.486982 v 11.210887 h -5.017465 a 17.570878,17.570822 0 0 1 -0.569996,-6.698932 z m 13.474407,-1.088989 v -3.304467 h 5.921958 c 0.305999,0 2.159986,0.353997 2.159986,1.739982 0,1.150489 -1.42199,1.564485 -2.591982,1.564485 z m 21.523351,2.974469 c 0,0.437996 -0.0165,0.871492 -0.0495,1.301987 h -1.799987 c -0.179999,0 -0.251999,0.119999 -0.251999,0.295497 V 34.2709 c 0,1.94698 -1.097991,2.369976 -2.059486,2.477975 -0.914993,0.101999 -1.931986,-0.383996 -2.056485,-0.944991 -0.539997,-3.037469 -1.43999,-3.686962 -2.861981,-4.808951 1.763988,-1.118989 3.599975,-2.771972 3.599975,-4.984449 0,-2.389476 -1.637988,-3.893961 -2.753979,-4.631953 -1.565991,-1.03199 -3.299979,-1.238988 -3.767975,-1.238988 H 18.92759 a 17.525879,17.525822 0 0 1 9.817432,-5.540944 l 2.194485,2.302477 c 0.496497,0.518995 1.319992,0.539995 1.837487,0.042 l 2.456983,-2.348977 a 17.564878,17.564822 0 0 1 12.013418,8.555914 l -1.681489,3.797961 a 1.303491,1.3034868 0 0 0 0.659996,1.717483 l 3.238477,1.436985 c 0.0555,0.574494 0.084,1.154988 0.084,1.744482 z M 30.941007,12.639619 a 1.4249902,1.4249855 0 0 1 2.015986,0.0465 1.4279902,1.4279855 0 0 1 -0.048,2.018979 1.4234902,1.4234856 0 0 1 -2.014486,-0.048 1.4294902,1.4294855 0 0 1 0.0465,-2.01748 z m 16.684385,13.426364 a 1.4256124,1.4256077 0 1 1 2.605482,1.157988 1.4256124,1.4256077 0 1 1 -2.605482,-1.157988 z"
     fill="#b7410e"
     id="path2"
     style="stroke-width:1.49999" />
</svg>
