<?xml version="1.0" encoding="UTF-8"?><svg id="svg2" width="22" height="22" version="1.1" xmlns="http://www.w3.org/2000/svg" xmlns:cc="http://creativecommons.org/ns#" xmlns:dc="http://purl.org/dc/elements/1.1/" xmlns:rdf="http://www.w3.org/1999/02/22-rdf-syntax-ns#">
 <metadata id="metadata3874">
  <rdf:RDF>
   <cc:Work rdf:about="">
    <dc:format>image/svg+xml</dc:format>
    <dc:type rdf:resource="http://purl.org/dc/dcmitype/StillImage"/>
   </cc:Work>
  </rdf:RDF>
 </metadata>
 <g id="layer1" transform="translate(-326 -534.36)">
  <g id="layer1-23" fill="#9bd916">
   <path id="rect4723" transform="translate(326 534.36)" d="m3.498 2.9961a0.50005 0.50005 0 0 0-0.34766 0.85742l1.8594 1.8594a8 8 0 0 0-2.0098 5.2871v8h16v-8a8 8 0 0 0-1.998-5.2793l1.8594-1.8594a0.50005 0.50005 0 0 0-0.35742-0.86133 0.50005 0.50005 0 0 0-0.34961 0.1543l-1.8613 1.8613a8 8 0 0 0-5.293-2.0156 8 8 0 0 0-5.2852 2.0039l-1.8574-1.8574a0.50005 0.50005 0 0 0-0.35938-0.15039zm7.4102 1.0039a7 7 0 0 1 0.091797 0 7 7 0 0 1 4.5879 1.7207 7 7 0 0 1 0.70312 0.71094 7 7 0 0 1 1.709 4.5684h-14a7 7 0 0 1 1.7148-4.582 7 7 0 0 1 0.64258-0.64453 7 7 0 0 1 0.066406-0.060547 7 7 0 0 1 4.4844-1.7129zm-2.9082 3a1 1 0 0 0-1 1 1 1 0 0 0 1 1 1 1 0 0 0 1-1 1 1 0 0 0-1-1zm6 0a1 1 0 0 0-1 1 1 1 0 0 0 1 1 1 1 0 0 0 1-1 1 1 0 0 0-1-1zm-10 5h6v1h1v-1h7v6h-14v-6zm7 1v1h1v-1h-1zm0 1h-1v2h2v-1h-1v-1z" fill="#9bd916" stroke-width="2"/>
  </g>
 </g>
</svg>
