<?xml version="1.0" encoding="UTF-8" standalone="no"?>
<!-- Created with Inkscape (http://www.inkscape.org/) -->

<svg
   width="22mm"
   height="22mm"
   viewBox="0 0 22 22"
   version="1.1"
   id="svg5"
   inkscape:version="1.2.2 (b0a8486541, 2022-12-01)"
   sodipodi:docname="appacation-typescript.svg"
   xmlns:inkscape="http://www.inkscape.org/namespaces/inkscape"
   xmlns:sodipodi="http://sodipodi.sourceforge.net/DTD/sodipodi-0.dtd"
   xmlns="http://www.w3.org/2000/svg"
   xmlns:svg="http://www.w3.org/2000/svg">
  <sodipodi:namedview
     id="namedview7"
     pagecolor="#00725d"
     bordercolor="#000000"
     borderopacity="0.25"
     inkscape:showpageshadow="2"
     inkscape:pageopacity="0"
     inkscape:pagecheckerboard="true"
     inkscape:deskcolor="#242424"
     inkscape:document-units="mm"
     showgrid="false"
     inkscape:zoom="8"
     inkscape:cx="50.6875"
     inkscape:cy="27.4375"
     inkscape:window-width="979"
     inkscape:window-height="1008"
     inkscape:window-x="941"
     inkscape:window-y="0"
     inkscape:window-maximized="0"
     inkscape:current-layer="layer1" />
  <defs
     id="defs2" />
  <g
     inkscape:label="Layer 1"
     inkscape:groupmode="layer"
     id="layer1">
    <rect
       style="fill:#3178c6;stroke-width:0.264583;fill-opacity:1"
       id="rect2966"
       width="16"
       height="16"
       x="3"
       y="3"
       rx="1"
       ry="1" />
    <path
       style="fill:#ffffff;fill-opacity:1;stroke-width:0.264583"
       d="m 4.6518478,15.262999 4.5452312,0.0056 0.067337,-0.370353 -1.1110565,-0.02244 -0.3310724,-0.0505 -0.213233,-0.145896 -0.016835,-0.134674 1.0970281,-6.6158361 0.028057,-0.1543135 0.016835,-0.053308 0.050502,-0.070142 0.07856,-0.078559 0.1234508,-0.03928 0.2020102,-0.00842 h 0.9135008 l 0.531693,0.049755 0.119035,0.039678 0.182522,0.063486 0.186489,0.1150679 0.1111,0.1111001 0.0992,0.1269714 0.05555,0.1547463 0.04721,0.1703909 0.03514,0.2697509 10e-4,0.2077395 -0.0021,0.1984375 -0.01964,0.4392496 -0.0217,0.3028238 -0.0072,0.07028 0.304891,-0.00103 0.227376,-2.6985434 H 4.6054036 L 3.9294757,9.8412635 4.2354002,9.8453989 4.5805989,8.6651041 4.729427,8.3178384 4.9609374,7.9705728 5.3743489,7.7059895 l 0.578776,-0.1488281 1.4552083,-0.033073 0.2025717,0.099219 0.024805,0.1860351 -1.120345,6.7096675 -0.057878,0.132292 -0.1405599,0.124023 -0.396875,0.09095 -1.2048328,0.0292 z"
       id="path5541" />
    <path
       style="fill:#ffffff;fill-opacity:1;stroke-width:0.264583"
       d="m 12.017871,15.440918 c -0.0041,0.05788 0.02274,0.135392 0.02274,0.135392 l 0.109555,0.0217 0.07028,-0.02997 0.655256,-0.807186 0.1788,0.195337 0.176005,0.144281 0.264555,0.168087 0.31425,0.141779 0.242631,0.07747 0.438489,0.08185 0.415103,0.02631 0.233861,-0.0058 0.2514,-0.03216 0.217783,-0.05116 0.245554,-0.07601 0.263093,-0.118392 0.252862,-0.149086 0.371254,-0.274786 0.210475,-0.211937 0.235323,-0.286479 0.207551,-0.336175 0.140316,-0.287941 0.111084,-0.308404 0.09208,-0.437028 0.019,-0.241169 -0.019,-0.479415 c 0,0 -0.038,-0.204628 -0.04531,-0.213397 -0.0073,-0.0088 -0.116931,-0.352253 -0.116931,-0.352253 L 17.311376,11.314852 17.043898,11.042989 16.63318,10.787203 16.08653,10.620577 14.686288,10.25517 14.437811,10.133855 14.138177,9.8663762 13.955473,9.5462791 l -0.08185,-0.3961017 0.0029,-0.2265526 0.08331,-0.4399508 0.121315,-0.248477 0.219244,-0.3274052 0.368331,-0.3624845 0.646041,-0.287941 0.521802,-0.052619 0.279171,0.030694 0.361023,0.074543 0.19732,0.096468 0.176857,0.059927 0.08185,0.1008525 -0.191473,-0.1330084 0.01023,-0.077467 0.185627,0.2031667 0.14324,0.1198536 0.258709,0.3361751 0.109622,0.2046282 0.194397,0.7337382 0.019,0.8345911 0.04239,0.051157 0.07893,0.023387 c 0,0 0.103775,-0.024847 0.109622,-0.021923 0.0058,0.00292 0.05116,-0.1096222 0.05554,-0.1183921 0.0044,-0.00877 0.04677,-0.271863 0.05993,-0.2820945 0.01316,-0.010231 0.05408,-0.1929352 0.06139,-0.2119365 0.0073,-0.019002 -0.0029,-0.090621 0.0015,-0.1023141 0.0044,-0.011692 0.03508,-0.2470153 0.03654,-0.2630932 0.0015,-0.016079 0.311327,-1.8796566 0.311327,-1.8796566 l -0.02192,-0.077466 c 0,0 -0.0088,-0.030694 -0.02339,-0.030694 -0.01461,0 -0.135931,-0.00292 -0.135931,-0.00292 0,0 -0.01754,0.00292 -0.03946,0.035079 -0.02192,0.032156 -0.03946,0.048234 -0.05993,0.074543 -0.02046,0.02631 -0.04677,0.046772 -0.07162,0.068697 -0.02485,0.021923 -0.04385,0.039464 -0.057,0.061388 -0.01315,0.021923 -0.442874,0.6051148 -0.442874,0.6051148 l -0.241191,-0.2704067 -0.444336,-0.3361748 -0.733738,-0.222168 -0.847746,0.023386 -0.946527,0.3966927 -0.975651,0.8268229 -0.347266,1.1079427 -0.04961,0.5457031 0.115755,0.3638017 0.132292,0.512631 0.347265,0.330729 c 0,0 0.165365,0.23151 0.231511,0.248047 0.06615,0.01654 0.644922,0.297656 0.644922,0.297656 0,0 0.479557,-0.09922 0.611849,0 0.132291,0.09922 0.46302,0.28112 0.694531,0.347266 0.23151,0.06615 0.396875,0.115755 0.578776,0.181901 0.181901,0.06615 0.330729,0.115755 0.330729,0.181901 0,0.06615 0.165365,0.595312 0.165365,0.595312 0,0 0.01654,0.28112 0.01654,0.363802 0,0.08268 0.03307,0.231511 0.01654,0.314193 -0.01654,0.08268 -0.56224,1.091406 -0.56224,1.091406 0,0 -0.628385,0.677995 -0.694531,0.677995 -0.06615,0 -0.777214,-0.115755 -0.892969,-0.115755 -0.115755,0 -1.207161,-0.363802 -1.273307,-0.380339 -0.06615,-0.01654 -0.330729,-0.396875 -0.330729,-0.396875 l -0.297657,-0.545703 -0.04961,-0.694531 0.04961,-0.628386 -0.330729,0.115756 -0.08268,0.198437 z"
       id="path5547" />
  </g>
</svg>
