<?xml version="1.0" encoding="UTF-8"?>
<svg id="svg5" width="22mm" height="22mm" version="1.1" viewBox="0 0 22 22" xmlns="http://www.w3.org/2000/svg">
 <g id="layer1" stroke-width=".26458">
  <rect id="rect2966" x="3" y="3" width="16" height="16" rx="1" ry="1" fill="#3178c6"/>
  <path id="path5541" d="m4.6518 15.263 4.5452 0.0056 0.067337-0.37035-1.1111-0.02244-0.33107-0.0505-0.21323-0.1459-0.016835-0.13467 1.097-6.6158 0.028057-0.15431 0.016835-0.053308 0.050502-0.070142 0.07856-0.078559 0.12345-0.03928 0.20201-0.00842h0.9135l0.53169 0.049755 0.11904 0.039678 0.18252 0.063486 0.18649 0.11507 0.1111 0.1111 0.0992 0.12697 0.05555 0.15475 0.04721 0.17039 0.03514 0.26975 1e-3 0.20774-0.0021 0.19844-0.01964 0.43925-0.0217 0.30282-0.0072 0.07028 0.30489-0.00103 0.22738-2.6985h-7.3473l-0.67593 2.6965 0.30592 0.0041354 0.3452-1.1803 0.14883-0.34727 0.23151-0.34727 0.41341-0.26458 0.57878-0.14883 1.4552-0.033073 0.20257 0.099219 0.024805 0.18604-1.1203 6.7097-0.057878 0.13229-0.14056 0.12402-0.39688 0.09095-1.2048 0.0292z" fill="#fff"/>
  <path id="path5547" d="m12.018 15.441c-0.0041 0.05788 0.02274 0.13539 0.02274 0.13539l0.10956 0.0217 0.07028-0.02997 0.65526-0.80719 0.1788 0.19534 0.176 0.14428 0.26456 0.16809 0.31425 0.14178 0.24263 0.07747 0.43849 0.08185 0.4151 0.02631 0.23386-0.0058 0.2514-0.03216 0.21778-0.05116 0.24555-0.07601 0.26309-0.11839 0.25286-0.14909 0.37125-0.27479 0.21048-0.21194 0.23532-0.28648 0.20755-0.33618 0.14032-0.28794 0.11108-0.3084 0.09208-0.43703 0.019-0.24117-0.019-0.47942s-0.038-0.20463-0.04531-0.2134c-0.0073-0.0088-0.11693-0.35225-0.11693-0.35225l-0.26455-0.41952-0.26748-0.27186-0.41072-0.25579-0.54665-0.16663-1.4002-0.36541-0.24848-0.12132-0.29963-0.26748-0.1827-0.3201-0.08185-0.3961 0.0029-0.22655 0.08331-0.43995 0.12132-0.24848 0.21924-0.32741 0.36833-0.36248 0.64604-0.28794 0.5218-0.052619 0.27917 0.030694 0.36102 0.074543 0.19732 0.096468 0.15516 0.093 0.10355 0.067777 0.14763 0.11254 0.25871 0.33618 0.10962 0.20463 0.1944 0.73374 0.019 0.83459 0.04239 0.051157 0.07893 0.023387s0.10378-0.024847 0.10962-0.021923c0.0058 0.00292 0.05554-0.11839 0.05554-0.11839l0.47069-2.7391-0.0045-0.039496-0.01737-0.03797-0.0214-0.022306-0.033-0.00839-0.06312-0.00202-0.04387 0.00841-0.03739 0.025777-0.06613 0.067308-0.06542 0.075932-0.057 0.061388-0.44287 0.60511-0.24119-0.27041-0.17519-0.14904-0.25453-0.15497-0.26577-0.12255-0.28748-0.072694-0.19804-0.041539-0.14892-0.013351-0.33615 0.00927-0.36304 0.020045-0.32331 0.072562-0.33477 0.14463-0.28521 0.16938-0.29584 0.21729-0.2793 0.27012-0.31782 0.39315-0.25626 0.44085-0.17369 0.61331-0.02038 0.52231 0.05345 0.51948 0.16536 0.38034 0.34726 0.33073 0.34844 0.24805 0.30153 0.16999 0.33754 0.13936 0.39664 0.12209 0.40608 0.10137 0.39258 0.11213 0.46302 0.1571 0.34727 0.24805 0.15942 0.24559 0.13439 0.29668 0.03408 0.34041-0.03023 0.34927-0.2128 0.51812-0.34944 0.57328-0.5256 0.36744-0.39549 0.12347-0.66642 0.07133-0.64053-0.12125-0.63277-0.25909-0.33073-0.39688-0.29766-0.5457-0.04961-0.69453 0.01592-0.47113-0.02419-0.13246-0.16071-0.02901-0.11214 0.11997-0.08268 0.19844z" fill="#fff"/>
 </g>
</svg>
