<?xml version="1.0" encoding="UTF-8"?>
<svg id="svg5" width="22mm" height="22mm" version="1.1" viewBox="0 0 22 22" xmlns="http://www.w3.org/2000/svg">
 <g id="layer1" stroke-width=".26458">
  <rect id="rect2966" x="3" y="3" width="16" height="16" rx="1" ry="1" fill="#3178c6"/>
  <path id="path5541" d="m4.6518 15.263 4.5452 0.0056 0.067337-0.37035-1.1111-0.02244-0.33107-0.0505-0.21323-0.1459-0.016835-0.13467 1.097-6.6158 0.028057-0.15431 0.016835-0.053308 0.050502-0.070142 0.07856-0.078559 0.12345-0.03928 0.20201-0.00842h0.9135l0.53169 0.049755 0.11904 0.039678 0.18252 0.063486 0.18649 0.11507 0.1111 0.1111 0.0992 0.12697 0.05555 0.15475 0.04721 0.17039 0.03514 0.26975 1e-3 0.20774-0.0021 0.19844-0.01964 0.43925-0.0217 0.30282-0.0072 0.07028 0.30489-0.00103 0.22738-2.6985h-7.3473l-0.67593 2.6965 0.30592 0.0041354 0.3452-1.1803 0.14883-0.34727 0.23151-0.34727 0.41341-0.26458 0.57878-0.14883 1.4552-0.033073 0.20257 0.099219 0.024805 0.18604-1.1203 6.7097-0.057878 0.13229-0.14056 0.12402-0.39688 0.09095-1.2048 0.0292z" fill="#fff"/>
  <path id="path5547" d="m12.018 15.441c-0.0041 0.05788 0.02274 0.13539 0.02274 0.13539l0.10956 0.0217 0.07028-0.02997 0.65526-0.80719 0.1788 0.19534 0.176 0.14428 0.26456 0.16809 0.31425 0.14178 0.24263 0.07747 0.43849 0.08185 0.4151 0.02631 0.23386-0.0058 0.2514-0.03216 0.21778-0.05116 0.24555-0.07601 0.26309-0.11839 0.25286-0.14909 0.37125-0.27479 0.21048-0.21194 0.23532-0.28648 0.20755-0.33618 0.14032-0.28794 0.11108-0.3084 0.09208-0.43703 0.019-0.24117-0.019-0.47942s-0.038-0.20463-0.04531-0.2134c-0.0073-0.0088-0.11693-0.35225-0.11693-0.35225l-0.26455-0.41952-0.26748-0.27186-0.41072-0.25579-0.54665-0.16663-1.4002-0.36541-0.24848-0.12132-0.29963-0.26748-0.1827-0.3201-0.08185-0.3961 0.0029-0.22655 0.08331-0.43995 0.12132-0.24848 0.21924-0.32741 0.36833-0.36248 0.64604-0.28794 0.5218-0.052619 0.27917 0.030694 0.36102 0.074543 0.19732 0.096468 0.17686 0.059927 0.08185 0.10085-0.19147-0.13301 0.01023-0.077467 0.18563 0.20317 0.14324 0.11985 0.25871 0.33618 0.10962 0.20463 0.1944 0.73374 0.019 0.83459 0.04239 0.051157 0.07893 0.023387s0.10378-0.024847 0.10962-0.021923c0.0058 0.00292 0.05116-0.10962 0.05554-0.11839 0.0044-0.00877 0.04677-0.27186 0.05993-0.28209 0.01316-0.010231 0.05408-0.19294 0.06139-0.21194 0.0073-0.019002-0.0029-0.090621 0.0015-0.10231 0.0044-0.011692 0.03508-0.24702 0.03654-0.26309 0.0015-0.016079 0.31133-1.8797 0.31133-1.8797l-0.02192-0.077466s-0.0088-0.030694-0.02339-0.030694c-0.01461 0-0.13593-0.00292-0.13593-0.00292s-0.01754 0.00292-0.03946 0.035079c-0.02192 0.032156-0.03946 0.048234-0.05993 0.074543-0.02046 0.02631-0.04677 0.046772-0.07162 0.068697-0.02485 0.021923-0.04385 0.039464-0.057 0.061388-0.01315 0.021923-0.44287 0.60511-0.44287 0.60511l-0.24119-0.27041-0.44434-0.33617-0.73374-0.22217-0.84775 0.023386-0.94653 0.39669-0.97565 0.82682-0.34727 1.1079-0.04961 0.5457 0.11576 0.3638 0.13229 0.51263 0.34726 0.33073s0.16536 0.23151 0.23151 0.24805 0.64492 0.29766 0.64492 0.29766 0.47956-0.09922 0.61185 0 0.46302 0.28112 0.69453 0.34727 0.39688 0.11576 0.57878 0.1819c0.1819 0.06615 0.33073 0.11576 0.33073 0.1819 0 0.06615 0.16536 0.59531 0.16536 0.59531s0.01654 0.28112 0.01654 0.3638 0.03307 0.23151 0.01654 0.31419c-0.01654 0.08268-0.56224 1.0914-0.56224 1.0914s-0.62838 0.678-0.69453 0.678-0.77721-0.11576-0.89297-0.11576-1.2072-0.3638-1.2733-0.38034c-0.06615-0.01654-0.33073-0.39688-0.33073-0.39688l-0.29766-0.5457-0.04961-0.69453 0.04961-0.62839-0.33073 0.11576-0.08268 0.19844z" fill="#fff"/>
 </g>
</svg>
