<?xml version="1.0" encoding="UTF-8"?><svg width="22" height="22" version="1.1" xmlns="http://www.w3.org/2000/svg">
 <g id="layer1" transform="translate(-326 -534.36)">
  <g id="layer1-23" fill="#8e44ad">
   <path id="path4146" transform="translate(326 534.36)" d="m11 3a8 3 0 0 0-8 3v5a8 3 0 0 0 7 2.9727v2.0273h-3v-1h-4v4h4v-1h8v1h4v-4h-4v1h-3v-2.0273a8 3 0 0 0 7-2.9727v-1h-1v1a7 2 0 0 1-7 2 7 2 0 0 1-7-2v-3.5488a8 3 0 0 0 7 1.5488 8 3 0 0 0 3-0.22266v-0.97266a7 2 0 0 1-3 0.19531 7 2 0 0 1-7-2 7 2 0 0 1 7-2 7 2 0 0 1 3 0.19531v-0.97461a8 3 0 0 0-3-0.2207zm-7 13h2v2h-2v-2zm12 0h2v2h-2v-2z" stroke-width="2"/>
   <path id="path4147" d="m341 537.36v3h1v-1h0.5c0.831 0 1.5 0.669 1.5 1.5s-0.669 1.5-1.5 1.5h-1.5v1h1.5c1.385 0 2.5-1.115 2.5-2.5s-1.115-2.5-2.5-2.5h1.5v-1h-3z"/>
  </g>
 </g>
</svg>
