<?xml version="1.0" encoding="UTF-8"?>
<svg width="22" height="22" version="1.1" xmlns="http://www.w3.org/2000/svg">
 <g id="layer1" transform="translate(-326 -534.36)">
  <g id="layer1-23">
   <path id="path4146" transform="translate(326 534.36)" d="m11 3a8 3 0 0 0-8 3v5a8 3 0 0 0 7 2.9727v2.0273h-3v-1h-4v4h4v-1h8v1h4v-4h-4v1h-3v-2.0273a8 3 0 0 0 7-2.9727v-5a8 3 0 0 0-8-3zm0 1a7 2 0 0 1 7 2 7 2 0 0 1-7 2 7 2 0 0 1-7-2 7 2 0 0 1 7-2zm7 3.4453v3.5547a7 2 0 0 1-7 2 7 2 0 0 1-7-2v-3.5488a8 3 0 0 0 7 1.5488 8 3 0 0 0 7-1.5547zm-14 8.5547h2v2h-2v-2zm12 0h2v2h-2v-2z" fill="#8e44ad" stroke-width="2"/>
  </g>
 </g>
</svg>
