<?xml version="1.0" encoding="UTF-8"?>
<svg id="svg2" width="22" height="22" version="1.1" xmlns="http://www.w3.org/2000/svg" xmlns:cc="http://creativecommons.org/ns#" xmlns:dc="http://purl.org/dc/elements/1.1/" xmlns:rdf="http://www.w3.org/1999/02/22-rdf-syntax-ns#">
 <metadata id="metadata3874">
  <rdf:RDF>
   <cc:Work rdf:about="">
    <dc:format>image/svg+xml</dc:format>
    <dc:type rdf:resource="http://purl.org/dc/dcmitype/StillImage"/>
    <dc:title/>
   </cc:Work>
  </rdf:RDF>
 </metadata>
 <g id="layer1" transform="translate(-326 -534.36)">
  <g id="g4141" transform="matrix(1.0032 0 0 1.0116 -1.0413 -5.4064)" fill="#687583">
   <path id="path5" d="m333.87 544.09c-0.12268 0.56081-0.62291 0.98203-1.22 0.98203-0.15918 0-0.28822 0.12895-0.28822 0.28823 0 0.15921 0.12908 0.28823 0.28822 0.28823 0.91363 0 1.6725-0.67472 1.8049-1.552 0.55938-0.0604 1.0758-0.30974 1.4755-0.71776 0.11133-0.11372 0.10946-0.29622-4e-3 -0.40757-0.11374-0.11133-0.29618-0.1096-0.40758 4e-3 -0.35352 0.36086-0.82636 0.55957-1.3314 0.55957-1.0277 0-1.8638-0.83612-1.8638-1.8638 0-0.15921-0.12909-0.28824-0.28824-0.28824-0.15917 0-0.28821 0.12909-0.28821 0.28824 0 1.238 0.92689 2.2629 2.1231 2.419z"/>
   <path id="path7" d="m335.09 546.59c0-0.15922-0.12907-0.28823-0.28822-0.28823-1.3456 0-2.4403 1.0947-2.4403 2.4403 0 0.0139 5.6e-4 0.0279 7.2e-4 0.0418-0.10719-0.0144-0.21632-0.0226-0.32738-0.0226-0.15919 0-0.28823 0.12909-0.28823 0.28823 0 0.15923 0.12908 0.28822 0.28823 0.28822 1.0277 0 1.8638 0.83611 1.8638 1.8639 0 0.15921 0.12908 0.28821 0.28821 0.28821 0.15917 0 0.28822-0.12894 0.28822-0.28821 0-1.0227-0.63261-1.8999-1.5268-2.2623-7e-3 -0.0653-0.0106-0.13136-0.0106-0.19726 0-1.0277 0.83612-1.8638 1.8638-1.8638 0.15917 0 0.28823-0.12908 0.28823-0.28823z"/>
   <path id="path9" d="m344.92 544.13c0-0.6562-0.26209-1.278-0.72536-1.7354 0.0734-0.23473 0.11052-0.47753 0.11052-0.72418 0-1.1865-0.85129-2.1774-1.975-2.3953 0.0858-0.21409 0.13042-0.4436 0.13042-0.6791 0-0.75157-0.45668-1.3983-1.107-1.6779-1.0835-0.86299-2.2686-1.3773-3.1779-1.3773-0.50545 0-0.95371 0.24856-1.2298 0.62963-0.27605-0.38107-0.72429-0.62963-1.2298-0.62963-0.90933 0-2.0944 0.5143-3.1779 1.3773-0.65034 0.27954-1.107 0.92631-1.107 1.6779 0 0.2355 0.0444 0.46501 0.13042 0.6791-1.1238 0.2179-1.975 1.2088-1.975 2.3953 0 0.24665 0.0371 0.48941 0.11052 0.72418-0.46327 0.45732-0.72536 1.0792-0.72536 1.7354 0 0.51295 0.15945 0.98922 0.43091 1.3825-0.28211 0.40782-0.43091 0.88354-0.43091 1.3844 0 0.88727 0.48372 1.7002 1.2496 2.1289-0.0133 0.1096-0.0199 0.2202-0.0199 0.33066 0 1.1968 0.78071 2.255 1.9134 2.6156 0.49272 0.84323 1.3902 1.3618 2.3715 1.3618 1.0758 0 2.0087-0.62184 2.4595-1.5247 0.45081 0.90283 1.3837 1.5247 2.4595 1.5247 0.98131 0 1.8788-0.51861 2.3715-1.3618 1.1327-0.36066 1.9134-1.4188 1.9134-2.6156 0-0.1104-7e-3 -0.22106-0.0199-0.33066 0.76587-0.42864 1.2496-1.2416 1.2496-2.1289 0-0.5009-0.1488-0.97662-0.43091-1.3844 0.27144-0.39328 0.4309-0.86955 0.4309-1.3825zm-10.434 8.6275c-0.80815 0-1.5445-0.44557-1.9218-1.1627-0.0374-0.071-0.10266-0.12335-0.18018-0.14414-0.94587-0.25457-1.6065-1.1157-1.6065-2.0942 0-0.14643 0.0148-0.29308 0.0438-0.43596 0.0269-0.13243-0.0418-0.26593-0.16533-0.32089-0.67324-0.29929-1.1083-0.96766-1.1083-1.7027 0-0.3343 0.0868-0.65384 0.25213-0.93688 0.43026 0.37933 0.99438 0.61021 1.6117 0.61021 0.15917 0 0.28821-0.12894 0.28821-0.28821 0-0.15921-0.12908-0.28822-0.28821-0.28822-1.0277 0-1.8638-0.83612-1.8638-1.8638 0-0.55324 0.2441-1.0747 0.66975-1.4304 0.0961-0.0803 0.12935-0.21349 0.0822-0.3295-0.0911-0.22428-0.13712-0.45967-0.13712-0.69963 0-1.0277 0.83612-1.8638 1.8638-1.8638 1.0277 0 1.8638 0.83612 1.8638 1.8638 0 0.15923 0.12908 0.28824 0.28821 0.28824 0.15919 0 0.28824-0.12896 0.28824-0.28824 0-1.2928-1.0108-2.3536-2.2835-2.4347-0.11534-0.19286-0.17598-0.41213-0.17598-0.63968 0-0.51376 0.31191-0.95594 0.75623-1.1475 0.0171-5e-3 0.034-0.012 0.0503-0.0203 0.13766-0.0523 0.28674-0.0813 0.44249-0.0813 0.48256 0 0.91336 0.26982 1.1243 0.70423 0.0696 0.14322 0.24205 0.20294 0.38519 0.13336 0.14319-0.0696 0.20292-0.24195 0.13335-0.38514-0.2408-0.49586-0.69653-0.85227-1.2214-0.9785 0.73563-0.44886 1.4598-0.70369 2.0381-0.70369 0.51914 0 0.94152 0.42235 0.94152 0.94152v3.7297c-0.25897-0.20546-0.58605-0.32861-0.94152-0.32861-0.15918 0-0.28824 0.12895-0.28824 0.28822 0 0.15921 0.12909 0.28821 0.28824 0.28821 0.51914 0 0.94152 0.42234 0.94152 0.94154v6.9281c-0.35835-0.46235-0.86356-0.8113-1.4578-0.97096-0.15369-0.0412-0.31182 0.0499-0.35314 0.20356-0.0414 0.15375 0.0499 0.31186 0.20356 0.35313 0.94643 0.2543 1.6074 1.1155 1.6074 2.0945 0 1.1972-0.97404 2.1713-2.1713 2.1713zm8.749-4.1578c-0.12361 0.055-0.1923 0.18838-0.16533 0.3209 0.0291 0.14287 0.0437 0.28952 0.0437 0.43593 0 0.97847-0.66061 1.8396-1.6065 2.0942-0.0775 0.0208-0.1428 0.0732-0.18016 0.14416-0.3773 0.71713-1.1137 1.1627-1.9218 1.1627-1.1972 0-2.1713-0.97406-2.1713-2.1713 0-0.081-4e-3 -0.16141-0.0106-0.24099 7e-3 -0.0246 0.0106-0.0504 0.0106-0.0772v-9.5197c0-0.5192 0.42238-0.94154 0.94153-0.94154 0.15917 0 0.28823-0.12896 0.28823-0.28824 0-0.15921-0.12909-0.28821-0.28823-0.28821-0.35548 0-0.68256 0.12321-0.94153 0.32861v-2.4999c0-0.51919 0.42238-0.94154 0.94153-0.94154 0.57822 0 1.3024 0.25483 2.038 0.70371-0.52483 0.12614-0.98058 0.48264-1.2214 0.9785-0.0696 0.14323-9e-3 0.31566 0.13336 0.38514 0.14317 0.0695 0.31561 9e-3 0.38518-0.13336 0.21093-0.43441 0.64173-0.70422 1.1243-0.70422 0.15575 0 0.30486 0.0288 0.44248 0.0813 0.0162 8e-3 0.0331 0.0151 0.0502 0.0202 0.4444 0.19153 0.75633 0.6337 0.75633 1.1475 0 0.22753-0.0606 0.44683-0.17597 0.63967-1.2728 0.0811-2.2835 1.1419-2.2835 2.4347 0 0.1592 0.12909 0.28822 0.28822 0.28822 0.15919 0 0.28823-0.12908 0.28823-0.28822 0-1.0277 0.83612-1.8638 1.8638-1.8638s1.8638 0.8361 1.8638 1.8638c0 0.23995-0.046 0.47534-0.13709 0.6996-0.0471 0.11615-0.0139 0.24919 0.0822 0.32951 0.42561 0.35575 0.66972 0.87716 0.66972 1.4304 0 1.0277-0.83612 1.8638-1.8638 1.8638-0.15918 0-0.28821 0.12895-0.28821 0.28823 0 0.15921 0.12907 0.28822 0.28821 0.28822 0.61734 0 1.1815-0.23089 1.6117-0.61022 0.16549 0.28304 0.25215 0.60258 0.25215 0.93687 0 0.73502-0.43503 1.4034-1.1083 1.7027z"/>
   <path id="path11" d="m341.87 544.76c-0.59705 0-1.0973-0.42123-1.22-0.98204 1.1962-0.1561 2.1231-1.181 2.1231-2.419 0-0.15921-0.12909-0.28821-0.28824-0.28821-0.15917 0-0.28822 0.12894-0.28822 0.28821 0 1.0277-0.83612 1.8638-1.8638 1.8638-0.50509 0-0.97792-0.19872-1.3314-0.55957-0.11133-0.11374-0.29388-0.11561-0.40758-4e-3 -0.11374 0.11133-0.11561 0.29386-4e-3 0.40757 0.39974 0.40802 0.91614 0.65728 1.4755 0.71777 0.13242 0.87732 0.89127 1.552 1.8049 1.552 0.15917 0 0.28823-0.12894 0.28823-0.28822 0-0.15922-0.12908-0.28822-0.28823-0.28822z"/>
   <path id="path13" d="m340.95 548.14c-0.11106 0-0.22022 8e-3 -0.3274 0.0226 2.4e-4 -0.014 7.4e-4 -0.0279 7.4e-4 -0.0417 0-1.3456-1.0947-2.4403-2.4403-2.4403-0.15919 0-0.28822 0.12895-0.28822 0.28823 0 0.15923 0.12907 0.28823 0.28822 0.28823 1.0277 0 1.8638 0.83611 1.8638 1.8638 0 0.0658-4e-3 0.13202-0.0106 0.19725-0.89422 0.36241-1.5269 1.2396-1.5269 2.2622 0 0.15922 0.12909 0.28822 0.28823 0.28822 0.15918 0 0.28823-0.12895 0.28823-0.28822 0-1.0277 0.83611-1.8638 1.8638-1.8638 0.15917 0 0.28823-0.12895 0.28823-0.28823 0-0.15923-0.12909-0.28824-0.28823-0.28824z"/>
  </g>
 </g>
</svg>
