<?xml version="1.0" encoding="UTF-8"?><svg id="svg2" width="22" height="22" version="1.1" xmlns="http://www.w3.org/2000/svg" xmlns:cc="http://creativecommons.org/ns#" xmlns:dc="http://purl.org/dc/elements/1.1/" xmlns:rdf="http://www.w3.org/1999/02/22-rdf-syntax-ns#">
 <metadata id="metadata3874">
  <rdf:RDF>
   <cc:Work rdf:about="">
    <dc:format>image/svg+xml</dc:format>
    <dc:type rdf:resource="http://purl.org/dc/dcmitype/StillImage"/>
   </cc:Work>
  </rdf:RDF>
 </metadata>
 <g id="layer1" transform="translate(-326 -534.36)">
  <g id="outlook" transform="matrix(.18204 0 0 .18204 269.78 537.63)">
   <path id="path36" transform="matrix(5.4932 0 0 5.4932 308.85 -17.935)" d="m2 3c-0.554 0-1 0.446-1 1v14c0 0.554 0.446 1 1 1h18c0.554 0 1-0.446 1-1v-14c0-0.554-0.446-1-1-1zm1 1h16l-8 7.5674zm-1 0.45508 6.1426 5.8633-6.1426 5.8652zm18 0v11.727l-6.1426-5.8633zm-11.082 6.5944 2.0824 1.9955 2.0385-1.931 6.9615 6.3971v0.48902h-18v-0.5486z" color="#000000" color-rendering="auto" fill="#3c56a0" image-rendering="auto" shape-rendering="auto" solid-color="#000000" style="isolation:auto;mix-blend-mode:normal"/>
  </g>
 </g>
</svg>
