<?xml version="1.0" encoding="UTF-8"?><svg id="svg3869" width="22" height="22" version="1.1" xmlns="http://www.w3.org/2000/svg" xmlns:cc="http://creativecommons.org/ns#" xmlns:dc="http://purl.org/dc/elements/1.1/" xmlns:rdf="http://www.w3.org/1999/02/22-rdf-syntax-ns#">
 <metadata id="metadata3874">
  <rdf:RDF>
   <cc:Work rdf:about="">
    <dc:format>image/svg+xml</dc:format>
    <dc:type rdf:resource="http://purl.org/dc/dcmitype/StillImage"/>
    <dc:title/>
   </cc:Work>
  </rdf:RDF>
 </metadata>
 <g id="layer1" transform="translate(-326 -534.36)" fill="#51db51">
  <path id="path5" transform="translate(326 534.36)" d="m13.734 3.0215c-2.8975 0-5.2461 2.3471-5.2461 5.2422 0 0.78688 0.17805 1.5298 0.48828 2.1992l-0.89648 1.0625-0.078125 0.99609c-0.00799 0.0074-0.97852 0.03711-0.97852 0.03711l-0.49805 0.36133s0.0020469 1.0869-0.0019531 1.0723l-1.0684 0.017578-0.45117 0.51562-0.0097656 0.97461s-0.92222-0.060509-1.0156 0.025391l0.0019532 0.001953c-0.58899 0.54252-0.98633 0.92969-0.98633 0.92969l0.0039063 2.5488 0.5-0.001953 6.793-6.793c0.45667 0.39786 0.98582 0.71114 1.5605 0.93359 0.58577 0.22793 1.2184 0.36133 1.8848 0.36133 2.898 0 5.2461-2.3486 5.2461-5.2441 0-2.8951-2.3489-5.2409-5.248-5.2402zm1.002 2.4961c0.96567 0 1.748 0.78431 1.748 1.75 0 0.96568-0.78238 1.748-1.748 1.748-0.96619 0-1.75-0.78237-1.75-1.748 0-0.96569 0.78381-1.75 1.75-1.75z"/>
  <path id="path7" transform="translate(326 534.36)" d="m14.736 5.5176c-0.96619 0-1.75 0.78431-1.75 1.75 0 0.96568 0.78381 1.748 1.75 1.748 0.96567 0 1.748-0.78237 1.748-1.748 0-0.96569-0.78238-1.75-1.748-1.75zm0 1c0.41361 0 0.74805 0.33588 0.74805 0.75 0 0.41362-0.33439 0.74805-0.74805 0.74805-0.41368 0-0.75-0.33443-0.75-0.74805 0-0.41412 0.33632-0.75 0.75-0.75zm-4.4453 5.6934-6.7969 6.7969h2.498l5.9336-5.8281c-0.60498-0.22333-1.1577-0.55308-1.6348-0.96875z" opacity=".5"/>
 </g>
</svg>
