<?xml version="1.0" encoding="UTF-8"?>
<svg width="22" height="22" xmlns="http://www.w3.org/2000/svg">
 <g transform="translate(-326 -534.36)" fill="#f59e16">
  <path d="m335.66602 537.3622c-1.47735 0-2.66602 1.18867-2.66602 2.66602h4v1.33398h-4-1.33398c-1.47734 0-2.66602 1.18868-2.66602 2.66602v2.66796c0 1.47734 1.18868 2.66602 2.66602 2.66602v-1.33398c0-1.18494.52051-2.23366 1.33398-2.96485.0009-.00081.001-.003.002-.004.17619-.15809.36677-.29968.56836-.42578.002-.001.004-.003.006-.004.19855-.12382.4073-.22833.62695-.31642.0396-.0155.0829-.0248.12305-.0391.18662-.0679.37546-.1306.57422-.16992.24828-.0479.50296-.0762.76563-.0762h1.33379 4v-4c0-1.47735-1.18867-2.66602-2.66602-2.66602zm0 .66602c.36933 0 .66796.29863.66796.66796 0 .36934-.29863.66602-.66796.66602-.36934 0-.66602-.29668-.66602-.66602 0-.36933.29668-.66796.66602-.66796z" stroke-width="1.3333"/>
  <g transform="translate(326 534.36)">
   <path d="m16 11-2 2 0.70703 0.70703 1.293-1.293v5.5859h-2v1h5v-1h-2v-7z"/>
   <path d="m10.5 11c-0.70317 0-1.3952 0.35899-1.834 1.041-0.43884 0.68202-0.66602 1.6493-0.66602 2.959s0.22718 2.277 0.66602 2.959c0.43883 0.68203 1.1308 1.041 1.834 1.041s1.3952-0.35899 1.834-1.041c0.43884-0.68202 0.66602-1.6493 0.66602-2.959s-0.22718-2.277-0.66602-2.959c-0.43883-0.68203-1.1308-1.041-1.834-1.041zm0 1c0.4014 0 0.70912 0.14101 0.99414 0.58398 0.083555 0.12986 0.15798 0.29831 0.22656 0.48828l-2.6836 2.6836c-0.021722-0.23269-0.037109-0.48034-0.037109-0.75586 0-1.1903 0.22084-1.973 0.50586-2.416 0.28502-0.44297 0.59274-0.58398 0.99414-0.58398zm1.4629 2.2441c0.021722 0.23269 0.037109 0.48033 0.037109 0.75586 0 1.1903-0.22084 1.973-0.50586 2.416-0.28502 0.44297-0.59275 0.58398-0.99414 0.58398s-0.70912-0.14101-0.99414-0.58398c-0.083555-0.12986-0.15799-0.29831-0.22656-0.48828z"/>
  </g>
 </g>
</svg>
