<?xml version="1.0" encoding="UTF-8"?><svg width="22" height="22" version="1.1" xmlns="http://www.w3.org/2000/svg">
 <g id="layer1" transform="translate(-326 -534.36)">
  <path id="rect4231" transform="translate(326 534.36)" d="m7 3c-0.554 0-1 0.446-1 1s0.446 1 1 1 1-0.446 1-1-0.446-1-1-1zm7 0-2 2 3 3-3 3 2 2 5-5-5-5zm-9.5 6c-0.831 0-1.5 0.669-1.5 1.5s0.669 1.5 1.5 1.5 1.5-0.669 1.5-1.5-0.669-1.5-1.5-1.5zm4.5 6c-1.108 0-2 0.892-2 2s0.892 2 2 2 2-0.892 2-2-0.892-2-2-2z" fill="#8e44ad"/>
 </g>
</svg>
