<?xml version="1.0" encoding="UTF-8"?><svg id="svg2" width="22" height="22" version="1.1" xmlns="http://www.w3.org/2000/svg" xmlns:cc="http://creativecommons.org/ns#" xmlns:dc="http://purl.org/dc/elements/1.1/" xmlns:rdf="http://www.w3.org/1999/02/22-rdf-syntax-ns#">
 <metadata id="metadata3874">
  <rdf:RDF>
   <cc:Work rdf:about="">
    <dc:format>image/svg+xml</dc:format>
    <dc:type rdf:resource="http://purl.org/dc/dcmitype/StillImage"/>
    <dc:title/>
   </cc:Work>
  </rdf:RDF>
 </metadata>
 <g id="layer1" transform="translate(-326 -534.36)">
  <path id="path20" d="m344 553.36-4.6837 3e-3 -3.1919-4.8076s-0.5139-0.9006-0.82988-1.1621c-0.26342-0.21765-0.37603-0.29556-0.63673-0.29556h-0.59238l9.6e-4 6.259-4.0661 1e-3v-15.995h8.8529s3.5877 0.67458 3.6607 4.2958c0.0812 4.037-3.4676 5.2248-3.4676 5.2248 0.4866 0.20307 4.4012 5.5406 4.954 6.4732m-7.0191-12.525-2.8745-1e-3 -9.6e-4 2.7199 2.8759-6.9e-4s1.3322-4e-3 1.3322-1.3832c0-1.4069-1.3322-1.3332-1.3322-1.3332" fill="#2e6ea9" fill-rule="evenodd"/>
 </g>
</svg>
