<?xml version="1.0" encoding="UTF-8"?><svg width="22" height="22" version="1.1" xmlns="http://www.w3.org/2000/svg">
 <g id="layer1" transform="translate(-326 -534.36)">
  <path id="rect5505" transform="translate(326 534.36)" d="m8 3v4h1v-4h-1zm2 1v3h1v-3h-1zm-4 1v2h1v-2h-1zm6 0v2h1v-2h-1zm-8 1v1h1v-1h-1zm10 0v1h1v-1h-1zm-11 2v6a4 3.9894 0 0 0 0 0.009766 4 3.9894 0 0 0 4 3.9902h-3v1h11v-1h-3a4 3.9894 0 0 0 4-3.9902 4 3.9894 0 0 0 0-0.009766h2c0.55401 0 1-0.44599 1-1v-3c0-0.55401-0.44599-1-1-1h-2v-1h-13zm1 1h11v5a3 3 0 0 1-3 3h-5a3 3 0 0 1-3-3v-5zm12 1h2v3h-2v-3z" fill="#f27935" stroke-width="6"/>
 </g>
</svg>
