<?xml version="1.0" encoding="UTF-8"?><svg id="svg2" width="22" height="22" version="1.1" xmlns="http://www.w3.org/2000/svg" xmlns:cc="http://creativecommons.org/ns#" xmlns:dc="http://purl.org/dc/elements/1.1/" xmlns:rdf="http://www.w3.org/1999/02/22-rdf-syntax-ns#">
 <metadata id="metadata3874">
  <rdf:RDF>
   <cc:Work rdf:about="">
    <dc:format>image/svg+xml</dc:format>
    <dc:type rdf:resource="http://purl.org/dc/dcmitype/StillImage"/>
   </cc:Work>
  </rdf:RDF>
 </metadata>
 <g id="layer1" transform="translate(-326 -534.36)">
  <path id="path4734" transform="translate(326 534.36)" d="m8.5 3v2h1v-2h-1zm4 0v2h1v-2h-1zm-7.9395 1.0801-0.80078 0.60156 1.2012 1.5996 0.79883-0.59961-1.1992-1.6016zm12.879 0-1.1992 1.6016 0.79883 0.59961 1.2012-1.5996-0.80078-0.60156zm-10.439 1.9199-4 3 8 10 8-10-4-3h-8zm0.33398 1h3.166v1.5h-5.166l2-1.5zm4.166 0h3.166l2 1.5h-5.166v-1.5zm-6.8203 2.5h5.8203v7.2754l-5.8203-7.2754zm6.8203 0h5.8203l-5.8203 7.2754v-7.2754z" color="#000000" color-rendering="auto" fill="#723838" fill-rule="evenodd" image-rendering="auto" shape-rendering="auto"/>
 </g>
</svg>
