<?xml version="1.0" encoding="UTF-8"?>
<svg width="22" height="22" version="1.1" xmlns="http://www.w3.org/2000/svg">
 <g id="layer1" transform="translate(-326 -534.36)">
  <g id="layer1-1" transform="translate(-95.714 8.5715)" fill="#f27935">
   <path id="rect3343" transform="translate(421.71 525.79)" d="m5 8v3h1v-1h4v1h1v-3h-1v1h-4v-1h-1zm6 6v3h1v-1h4v1h1v-3h-1v1h-4v-1h-1z" color="#4d4d4d"/>
   <path id="rect3370" transform="translate(421.71 525.79)" d="m6 3s-1-3e-5 -1 1h-2v15h16v-15h-2c0-1-1-1-1-1h-3s-1-3e-5 -1 1h-2c0-1-1-1-1-1h-3zm0 1h3v1h-3v-1zm7 0h3v1h-3v-1zm-9 3h14v11h-14v-11z" color="#4d4d4d"/>
  </g>
 </g>
</svg>
