<?xml version="1.0" encoding="UTF-8"?><svg id="svg2" width="22" height="22" version="1.1" xmlns="http://www.w3.org/2000/svg" xmlns:cc="http://creativecommons.org/ns#" xmlns:dc="http://purl.org/dc/elements/1.1/" xmlns:rdf="http://www.w3.org/1999/02/22-rdf-syntax-ns#">
 <metadata id="metadata3874">
  <rdf:RDF>
   <cc:Work rdf:about="">
    <dc:format>image/svg+xml</dc:format>
    <dc:type rdf:resource="http://purl.org/dc/dcmitype/StillImage"/>
   </cc:Work>
  </rdf:RDF>
 </metadata>
 <g id="layer1" transform="translate(-326 -534.36)">
  <path id="path4" d="m330.33 537.36c-0.73866 0-1.334 0.59532-1.334 1.334v13.332c0 0.73866 0.59532 1.334 1.334 1.334h13.332c0.73866 0 1.334-0.59532 1.334-1.334v-13.332c0-0.73866-0.59532-1.334-1.334-1.334h-13.332zm-0.33398 1h14v14h-14v-14zm1 1v1h3v-1h-3zm4 0v1h4v-1h-4zm5 0v1h3v-1h-3zm-9 2v1h3v-1h-3zm4 0v1h4v-1h-4zm5 0v1h3v-1h-3zm-9 2v1h3v-1h-3zm4 0v1h4v-1h-4zm5 0v1h3v-1h-3zm-9 2v1h3v-1h-3zm4 0v1h4v-1h-4zm5 0v1h3v-1h-3zm-9 2v1h3v-1h-3zm4 0v1h4v-1h-4zm5 0v1h3v-1h-3zm-9 2v1h3v-1h-3zm4 0v1h4v-1h-4zm5 0v1h3v-1h-3z" color="#000000" color-rendering="auto" fill="#124c2f" image-rendering="auto" shape-rendering="auto"/>
 </g>
</svg>
