<?xml version="1.0" encoding="UTF-8"?>
<svg id="svg2" width="22" height="22" version="1.1" xmlns="http://www.w3.org/2000/svg" xmlns:cc="http://creativecommons.org/ns#" xmlns:dc="http://purl.org/dc/elements/1.1/" xmlns:rdf="http://www.w3.org/1999/02/22-rdf-syntax-ns#">
 <metadata id="metadata3874">
  <rdf:RDF>
   <cc:Work rdf:about="">
    <dc:format>image/svg+xml</dc:format>
    <dc:type rdf:resource="http://purl.org/dc/dcmitype/StillImage"/>
   </cc:Work>
  </rdf:RDF>
 </metadata>
 <g id="layer1-8" transform="translate(0 -1030.4)" fill="#f27935">
  <path id="path4171-5" transform="translate(0 1030.4)" d="m3 3v2a14 14 0 0 1 14 14h2a16 16 0 0 0-16-16zm0 5v2a9 9 0 0 1 9 9h2a11 11 0 0 0-11-11zm2.5 6a2.5 2.5 0 0 0-2.5 2.5 2.5 2.5 0 0 0 2.5 2.5 2.5 2.5 0 0 0 2.5-2.5 2.5 2.5 0 0 0-2.5-2.5z" fill="#fc963a" stroke-linecap="round" stroke-width=".1"/>
 </g>
</svg>
