<?xml version="1.0" encoding="UTF-8"?>
<svg id="svg2" width="22" height="22" version="1.1" xmlns="http://www.w3.org/2000/svg" xmlns:cc="http://creativecommons.org/ns#" xmlns:dc="http://purl.org/dc/elements/1.1/" xmlns:rdf="http://www.w3.org/1999/02/22-rdf-syntax-ns#">
 <metadata id="metadata3874">
  <rdf:RDF>
   <cc:Work rdf:about="">
    <dc:format>image/svg+xml</dc:format>
    <dc:type rdf:resource="http://purl.org/dc/dcmitype/StillImage"/>
   </cc:Work>
  </rdf:RDF>
 </metadata>
 <g id="layer1" transform="translate(-326 -534.36)">
  <g id="layer1-2" transform="matrix(1.3886 0 0 1.3471 325.89 -861.62)">
   <path id="path4124" d="m6.7511 1048.9c-0.97863 0-1.6459-0.4892-1.4679-1.7347 0.22242-1.557 1.1566-2.0686 4.1147-2.4912 0.02224 0 0.93414-0.1556 0.93414-0.1556l-0.37811 2.758c-0.80069 1.0008-2.2464 1.6235-3.2028 1.6235zm3.0471-0.1333 0.044479 1.2899h1.2678l1.1566-8.3406c0.35586-2.5355-1.0898-3.2695-3.1138-3.2695-1.4457 0-2.8692 0.4226-3.7143 0.912l0.24466 1.3789c0.9119-0.4448 2.1574-0.7561 3.2917-0.7561 1.4012 0 1.9128 0.6894 1.7348 2.0239l-0.20017 1.2678-1.0454 0.1334c-2.6912 0.4226-5.3157 0.8452-5.7383 3.8255-0.31138 2.1352 0.95639 3.0916 2.6467 3.0916 1.0676 0 2.3798-0.4003 3.4252-1.5568z" fill="#6c7a89"/>
  </g>
 </g>
</svg>
