<?xml version="1.0" encoding="UTF-8"?><svg id="svg2" width="22" height="22" version="1.1" xmlns="http://www.w3.org/2000/svg" xmlns:cc="http://creativecommons.org/ns#" xmlns:dc="http://purl.org/dc/elements/1.1/" xmlns:rdf="http://www.w3.org/1999/02/22-rdf-syntax-ns#">
 <metadata id="metadata3874">
  <rdf:RDF>
   <cc:Work rdf:about="">
    <dc:format>image/svg+xml</dc:format>
    <dc:type rdf:resource="http://purl.org/dc/dcmitype/StillImage"/>
   </cc:Work>
  </rdf:RDF>
 </metadata>
 <g id="layer1" transform="translate(-326 -534.36)">
  <path id="path4" d="m330.33 537.36c-0.73866 0-1.334 0.59538-1.334 1.334v13.332c0 0.7386 0.59532 1.334 1.334 1.334h13.332c0.73866 0 1.334-0.59538 1.334-1.334v-13.332c0-0.7386-0.59532-1.334-1.334-1.334h-13.332zm-0.33398 1h14v14h-14v-14zm8 1v5h5a5 5 0 0 0-5-5zm-1 1a5 5 0 0 0-5 5 5 5 0 0 0 5 5 5 5 0 0 0 5-5h-5v-5zm-1 1.1309v4.8691h4.8672a4 4 0 0 1-3.8672 3 4 4 0 0 1-4-4 4 4 0 0 1 3-3.8691z" color="#000000" color-rendering="auto" fill="#662d0e" image-rendering="auto" shape-rendering="auto"/>
 </g>
</svg>
