<?xml version="1.0" encoding="UTF-8"?><svg id="svg2" width="22" height="22" version="1.1" xmlns="http://www.w3.org/2000/svg" xmlns:cc="http://creativecommons.org/ns#" xmlns:dc="http://purl.org/dc/elements/1.1/" xmlns:rdf="http://www.w3.org/1999/02/22-rdf-syntax-ns#">
 <metadata id="metadata3874">
  <rdf:RDF>
   <cc:Work rdf:about="">
    <dc:format>image/svg+xml</dc:format>
    <dc:type rdf:resource="http://purl.org/dc/dcmitype/StillImage"/>
   </cc:Work>
  </rdf:RDF>
 </metadata>
 <g id="layer1" transform="translate(-326 -534.36)">
  <path id="path4" d="m337 537.36c-4.4183 0-8 1.1939-8 2.6667v10.667c-1e-5 1.4728 3.5817 2.6667 8 2.6667s8-1.1939 8-2.6667v-10.667c1e-5 -1.4728-3.5817-2.6667-8-2.6667m-0.0233 0.98384c3.6819 0 6.69 0.94645 6.69 1.6828-1e-5 0.73638-2.9848 1.3333-6.6667 1.3333s-6.6667-0.59695-6.6667-1.3333c-2e-5 -0.73638 2.9615-1.6595 6.6434-1.6595m-6.923 2.9885c1.4785 0.74685 4.2385 1.2433 6.923 1.2445 2.6829-5.9e-4 5.5591-0.37954 7.0395-1.1254v3.8613c-1e-5 0.73638-3.3576 1.5663-7.0395 1.5663s-6.923-0.94644-6.923-1.6828zm0 5.3799c1.4785 0.74686 4.2618 1.2899 6.9463 1.2911 2.6829-6e-4 5.5591-0.44945 7.0395-1.1953v3.8613c2e-5 0.73638-3.4042 1.6362-7.0861 1.6362s-6.8997-0.99304-6.8997-1.7294z" fill="#ec2411"/>
 </g>
</svg>
