<?xml version="1.0" encoding="UTF-8"?>
<svg id="svg4" version="1.1" viewBox="0 0 22 22" xmlns="http://www.w3.org/2000/svg" xmlns:cc="http://creativecommons.org/ns#" xmlns:dc="http://purl.org/dc/elements/1.1/" xmlns:rdf="http://www.w3.org/1999/02/22-rdf-syntax-ns#">
 <metadata id="metadata10">
  <rdf:RDF>
   <cc:Work rdf:about="">
    <dc:format>image/svg+xml</dc:format>
    <dc:type rdf:resource="http://purl.org/dc/dcmitype/StillImage"/>
   </cc:Work>
  </rdf:RDF>
 </metadata>
 <g id="g836" fill="#25bb70">
  <path id="path84-6-5" d="m9.2067 2.6863c-0.80545 0.17906-1.6022 0.42835-2.3492 0.80435 0.017083 0.65961 0.059729 1.2916 0.14617 1.9336-0.2901 0.18586-0.59502 0.34537-0.86598 0.56295-0.27531 0.2118-0.55647 0.41443-0.80576 0.66214-0.49803-0.32941-1.0251-0.63897-1.5682-0.91222-0.58534 0.62995-1.1327 1.3099-1.5797 2.0707 0.35137 0.55155 0.72826 1.1059 1.0773 1.5382v4.6695c0.00854 7.6e-5 0.017069 3.97e-4 0.025531 0.0012l2.8627 0.27602c0.14995 0.01447 0.26751 0.13518 0.27795 0.28545l0.088246 1.2637 2.4972 0.1782 0.17204-1.1663c0.022303-0.15122 0.15201-0.26329 0.30496-0.26329h3.0203c0.15288 0 0.28259 0.11207 0.30489 0.26329l0.17204 1.1663 2.4972-0.1782 0.08821-1.2637c0.01052-0.15027 0.12796-0.27089 0.27791-0.28545l2.8616-0.27602c0.0085-7.91e-4 0.01692-0.0011 0.02546-0.0012v-0.37262l0.0012-3.7e-4v-4.2966c0.40309-0.50748 0.7848-1.0673 1.0773-1.5382-0.44694-0.76084-0.99455-1.4408-1.5799-2.0707-0.54287 0.27325-1.0702 0.58281-1.5682 0.91222-0.24921-0.24771-0.5299-0.45034-0.80561-0.66214-0.27088-0.21758-0.57614-0.37709-0.86569-0.56295 0.086207-0.64197 0.12883-1.274 0.14599-1.9336-0.74708-0.37599-1.5437-0.62529-2.3496-0.80435-0.32174 0.54074-0.61597 1.1263-0.87222 1.6988-0.30386-0.050775-0.60914-0.069579-0.91482-0.073217v-4.826e-4c-0.0021 0-0.0041 4.826e-4 -0.0059 4.826e-4 -0.0019 0-0.0039-4.826e-4 -0.0058-4.826e-4v4.826e-4c-0.30624 0.00364-0.61129 0.022441-0.91523 0.073217-0.25612-0.57245-0.55015-1.158-0.87236-1.6988zm-2.2648 6.8309c0.95287 0 1.7252 0.77173 1.7252 1.7243 0 0.95319-0.77231 1.7254-1.7252 1.7254-0.9524 0-1.725-0.77218-1.725-1.7254 0-0.95256 0.77256-1.7243 1.725-1.7243zm8.1164 0c0.95232 0 1.7248 0.77173 1.7248 1.7243 0 0.95319-0.77245 1.7254-1.7248 1.7254-0.95303 1e-6 -1.7254-0.77218-1.7254-1.7254 0-0.95256 0.77233-1.7243 1.7254-1.7243zm-4.0584 1.0091c0.30671 0 0.55582 0.22626 0.55582 0.50465v1.5882c0 0.27863-0.24912 0.50469-0.55582 0.50469-0.30671 0-0.5553-0.22606-0.5553-0.50469v-1.5882c0-0.2784 0.2486-0.50465 0.5553-0.50465z"/>
  <path id="path88-5-2" d="m16.169 14.881-0.08866 1.2704c-0.01068 0.15312-0.13248 0.27499-0.28559 0.28599l-3.0493 0.21758c-0.0074 5.53e-4 -0.01487 7.91e-4 -0.02222 7.91e-4 -0.15154 0-0.28227-0.1112-0.30465-0.26337l-0.17487-1.1859h-2.4881l-0.17487 1.1859c-0.02349 0.1596-0.16617 0.27436-0.32688 0.26258l-3.0493-0.21758c-0.15312-0.010994-0.27492-0.13287-0.28559-0.28599l-0.088659-1.2704-2.5741-0.24818c0.00119 0.27666 0.00475 0.57973 0.00475 0.64007 0 2.7186 3.4487 4.0253 7.7335 4.0404h0.0105c4.2848-0.01503 7.7323-1.3217 7.7323-4.0404 0-0.06145 0.0037-0.36326 5e-3 -0.64007z"/>
 </g>
</svg>
