<?xml version="1.0" encoding="UTF-8"?><svg width="22" height="22" version="1.1" xmlns="http://www.w3.org/2000/svg">
 <g id="layer1" transform="translate(-326 -534.36)" fill="#cf000f" stroke-width="2">
  <path id="path6105" transform="translate(326 534.36)" d="m11 3a8 8 0 0 0-8 8 8 8 0 0 0 8 8 8 8 0 0 0 8-8 8 8 0 0 0-8-8zm0 1a7 7 0 0 1 7 7 7 7 0 0 1-7 7 7 7 0 0 1-7-7 7 7 0 0 1 7-7z"/>
  <path id="path6110" transform="translate(326 534.36)" d="m11 6a5 5 0 0 0-3.3184 1.2676l0.70898 0.70898a4 4 0 0 1 2.6094-0.97656 4 4 0 0 1 4 4h1a5 5 0 0 0-5-5zm-4.5254 2.8887a5 5 0 0 0-0.47461 2.1113h1a4 4 0 0 1 0.23828-1.3477l-0.76367-0.76367z"/>
  <path id="path6123" d="m338.34 542.53-2.1464 4.9766c-0.1228 0.13979-0.21208 0.31019-0.2592 0.49473-7e-3 0.0298-0.0135 0.0597-0.0185 0.09l-7e-3 0.0141 6e-3 1e-3c-0.09 0.56146 0.22081 1.0855 0.71863 1.2116 0.49878 0.12537 1.0215-0.18951 1.2078-0.72764l7e-3 2e-3 1e-3 -0.0298c8e-3 -0.0247 0.0159-0.0497 0.0228-0.0748 0.0449-0.18195 0.0475-0.37119 7e-3 -0.54997z"/>
 </g>
</svg>
