<?xml version="1.0" encoding="UTF-8"?>
<svg width="22" height="22" version="1.1" xmlns="http://www.w3.org/2000/svg">
 <g id="layer1" transform="translate(-326 -534.36)" fill="#f27935" stroke-linecap="square" stroke-width="2">
  <path id="path4155" transform="translate(326 534.36)" d="m10.492 3a0.5 0.5 0 0 0-0.3457 0.14648 0.5 0.5 0 0 0 0 0.70703l4.2168 4.2168a5.5 5.5 0 0 0-0.86328-0.070312h-10a0.5 0.5 0 0 0-0.5 0.5 0.5 0.5 0 0 0 0.5 0.5h6.8438a5.5 5.5 0 0 0-1.2031 1.1543l-5.9941 5.9922a0.50002 0.5 0 0 0 0 0.70703 0.50002 0.5 0 0 0 0.70703 0l4.2168-4.2148a5.5 5.5 0 0 0-0.070312 0.86133 5.5 5.5 0 0 0 5.5 5.5 5.5 5.5 0 0 0 5.5-5.5 5.5 5.5 0 0 0-2.1582-4.3633l-5.9883-5.9902a0.5 0.5 0 0 0-0.36133-0.14648zm3.0078 6a4.5 4.5 0 0 1 4.5 4.5 4.5 4.5 0 0 1-4.5 4.5 4.5 4.5 0 0 1-4.5-4.5 4.5 4.5 0 0 1 4.5-4.5z"/>
  <circle id="path4160" cx="339.5" cy="547.86" r="1.5"/>
 </g>
</svg>
