<?xml version="1.0" encoding="UTF-8"?>
<svg id="svg2" width="22" height="22" version="1.1" xmlns="http://www.w3.org/2000/svg" xmlns:cc="http://creativecommons.org/ns#" xmlns:dc="http://purl.org/dc/elements/1.1/" xmlns:rdf="http://www.w3.org/1999/02/22-rdf-syntax-ns#">
 <metadata id="metadata3874">
  <rdf:RDF>
   <cc:Work rdf:about="">
    <dc:format>image/svg+xml</dc:format>
    <dc:type rdf:resource="http://purl.org/dc/dcmitype/StillImage"/>
   </cc:Work>
  </rdf:RDF>
 </metadata>
 <path id="path4146" d="m16.5 2-3 3h-5.5508a2.5 2.5 0 0 0-2.4492-2 2.5 2.5 0 0 0-2.5 2.5 2.5 2.5 0 0 0 2 2.4453v9.0547h3v2h5v-2h4v-8.5l3-3-3.5-3.5zm0 1.4004 2.0996 2.0996-2.0996 2.0996-2.0996-2.0996 2.0996-2.0996zm-11 0.59961a1.5 1.5 0 0 1 1.5 1.5 1.5 1.5 0 0 1-1.5 1.5 1.5 1.5 0 0 1-1.5-1.5 1.5 1.5 0 0 1 1.5-1.5zm2.4453 2h5.5547l2.5 2.5v7.5h-3v-2h-5v2h-2v-8.0508a2.5 2.5 0 0 0 1.9453-1.9492zm1.0547 9h3v3h-3v-3z" fill="#3c559f"/>
</svg>
