<?xml version="1.0" encoding="UTF-8"?><svg id="svg2" width="22" height="22" version="1.1" xmlns="http://www.w3.org/2000/svg" xmlns:cc="http://creativecommons.org/ns#" xmlns:dc="http://purl.org/dc/elements/1.1/" xmlns:rdf="http://www.w3.org/1999/02/22-rdf-syntax-ns#">
 <metadata id="metadata3874">
  <rdf:RDF>
   <cc:Work rdf:about="">
    <dc:format>image/svg+xml</dc:format>
    <dc:type rdf:resource="http://purl.org/dc/dcmitype/StillImage"/>
    <dc:title/>
   </cc:Work>
  </rdf:RDF>
 </metadata>
 <g id="layer1" transform="translate(-326 -534.36)" fill="#6c7a89">
  <path id="rect4138" d="m329 537.36v16h16v-16h-16zm1 4h14v11h-14v-11z"/>
  <path id="path6" d="m337.47 548.52-1.4271-1.4103 0.0168-0.0168c0.97764-1.09 1.6744-2.343 2.0845-3.669h1.6463v-1.1237h-3.933v-1.1237h-1.1237v1.1237h-3.933v1.1181h6.276c-0.37645 1.0844-0.97202 2.1126-1.7811 3.0116-0.52254-0.57872-0.95516-1.2136-1.2979-1.8822h-1.1237c0.41016 0.91584 0.97203 1.7811 1.6744 2.5621l-2.8599 2.8206 0.79786 0.79783 2.8093-2.8093 1.7474 1.7474 0.42701-1.1462zm3.1633-2.8486h-1.1237l-2.5284 6.7423h1.1237l0.62929-1.6856h2.6688l0.6349 1.6856h1.1237l-2.5284-6.7423zm-1.4721 3.933 0.91021-2.4328 0.91022 2.4328h-1.8204z"/>
 </g>
</svg>
