<?xml version="1.0" encoding="UTF-8"?><svg width="22" height="22" version="1.1" xmlns="http://www.w3.org/2000/svg">
 <g id="layer1" transform="translate(-326 -534.36)" fill="#6c7a89">
  <path id="rect4138" d="m329 537.36v16h16v-16h-16zm1 4h14v11h-14v-11z"/>
  <path id="rect4169-4" d="m337 542.36c-0.83305 0-1.611 0.25574-2.1591 0.73537-0.54817 0.47963-0.84042 1.1606-0.84042 1.8896h1.7138c0-0.39586 0.13665-0.6525 0.33838-0.8289 0.20159-0.17672 0.49525-0.2961 0.94729-0.2961 0.45287 0 0.7457 0.1194 0.94782 0.2961 0.20184 0.1764 0.33785 0.43304 0.33785 0.8289 0 0.3438-0.076 0.49004-0.18053 0.61969-0.4469 0.39461-0.98704 0.73165-1.4212 1.0546-0.49028 0.32186-0.96904 0.74396-0.96904 1.3257v0.37498h1.714v-0.37498c0.60947-0.54572 1.517-1.0217 2.0825-1.522 0.29841-0.37423 0.48909-0.88402 0.48909-1.4783 0-0.729-0.29241-1.4097-0.84025-1.8894-0.54823-0.47963-1.3267-0.73537-2.1599-0.73537zm-1.2851 7.5003v1.4997h1.714v-1.4997z" stroke-linecap="round" stroke-linejoin="round" stroke-width="2"/>
 </g>
</svg>
