<?xml version="1.0" encoding="UTF-8"?>
<svg id="svg2" width="22" height="22" version="1.1" xmlns="http://www.w3.org/2000/svg" xmlns:cc="http://creativecommons.org/ns#" xmlns:dc="http://purl.org/dc/elements/1.1/" xmlns:rdf="http://www.w3.org/1999/02/22-rdf-syntax-ns#">
 <metadata id="metadata3874">
  <rdf:RDF>
   <cc:Work rdf:about="">
    <dc:format>image/svg+xml</dc:format>
    <dc:type rdf:resource="http://purl.org/dc/dcmitype/StillImage"/>
   </cc:Work>
  </rdf:RDF>
 </metadata>
 <g id="layer1" transform="translate(-326 -534.36)">
  <path id="rect4153" transform="translate(326 534.36)" d="m7 3c-0.55401 0-1 0.44599-1 1v2h-2c-0.55401 0-1 0.44599-1 1v11c0 0.55401 0.44599 1 1 1h11c0.55401 0 1-0.44599 1-1v-2h2c0.55401 0 1-0.44599 1-1v-11c0-0.55401-0.44599-1-1-1h-11zm0 1h11v11h-2v-8c0-0.55401-0.44599-1-1-1-3 0-8-0.32532-8-2zm-3 3h11v11h-11v-11zm1 1v2h9v-2h-9zm0 4v1h9v-1h-9zm0 2v1h9v-1h-9zm0 2v1h9v-1h-9z" fill="#4bc94b"/>
 </g>
</svg>
