<?xml version="1.0" encoding="UTF-8"?><svg width="22" height="22" version="1.1" xmlns="http://www.w3.org/2000/svg">
 <g id="layer1" transform="translate(-326 -534.36)">
  <path id="path1119-5" transform="matrix(1.3113 0 0 1.3334 326.51 -847.15)" d="m5.3501 1050.3c-0.23924-0.062-0.21515-0.1292 0.1793-0.4976 0.67928-0.6346 0.79241-1.2668 0.59905-3.3474-0.15417-1.6588-0.18875-1.7859-0.44825-1.647-0.5615 0.3005-1.2632-0.087-2.0598-1.1377-0.39387-0.5195-0.43125-0.6716-0.36362-1.4812 0.041493-0.4962 0.12617-1.0952 0.18824-1.3311 0.095316-0.3621 0.064541-0.4287-0.19806-0.4287-0.17101 0-0.39937-0.1066-0.50745-0.2368-0.27215-0.3279 0.21293-0.8547 0.78709-0.8547 0.23348 0 0.51185-0.1052 0.61861-0.2338 0.27562-0.3322 0.69712-0.2899 1.1703 0.1171 0.50305 0.4327 0.67433 1.4346 0.39167 2.2911-0.3195 0.9681-0.097587 1.063 0.34938 0.1494 0.25011-0.5112 0.60322-0.9571 0.89393-1.1288 0.26429-0.1561 0.65049-0.5532 0.85825-0.8822 0.20775-0.3292 0.46828-0.6564 0.57894-0.7272 0.33971-0.2174 1.2744-0.5162 1.6225-0.5188 0.47476-0.01 1.1115 0.5524 1.225 1.0691 0.05361 0.2441 0.33967 0.8197 0.63565 1.2791 0.29598 0.4595 0.53816 0.9158 0.53816 1.0141 0 0.098 0.21049 0.4435 0.46776 0.7673 0.38529 0.4848 0.4666 0.7291 0.46122 1.3857-0.0074 0.9006-0.49248 2.0486-0.67007 1.5858-0.05603-0.146-0.03258-0.395 0.05222-0.5534 0.17706-0.3309 0.02068-1.7988-0.17113-1.607-0.13385 0.1339-0.22132 1.5659-0.18377 3.0089 0.04876 1.8738-0.04237 3.6404-0.19012 3.6875-0.37772 0.1201-0.54281-0.1914-0.3878-0.7319 0.2335-0.8142 0.1855-2.9787-0.07364-3.3207-0.11971-0.1581-0.26392-0.5611-0.32045-0.8958-0.05654-0.3346-0.16387-0.6462-0.23852-0.6923-0.24579-0.1519-0.61676 0.8315-0.61676 1.635 0 0.6289-0.09478 0.9195-0.46777 1.4345-0.5278 0.7286-0.56908 0.9443-0.23388 1.2225 0.26143 0.217 0.31223 0.7128 0.087258 0.8519-0.080644 0.05-0.29114-0.064-0.46776-0.2541-0.24974-0.2681-0.32114-0.2902-0.32114-0.1 0 0.2852-0.57798 0.4785-0.897 0.2999-0.17074-0.095-0.13045-0.1804 0.18314-0.3859 0.55852-0.366 0.50468-0.6662-0.24186-1.3486-0.58191-0.5319-0.63373-0.639-0.53832-1.1124 0.30191-1.4981 0.3007-1.5373-0.048093-1.5373-0.22845 0-0.3289 0.098-0.3289 0.3221 0 0.1771-0.077441 0.4667-0.17208 0.6436-0.16698 0.312-0.21678 0.5629-0.62076 3.1272-0.20133 1.2779-0.25102 1.3267-1.1207 1.1002zm4.1865-2.7218c0.2025-0.3916 0.23191-0.7269 0.14508-1.6536-0.11538-1.2312-0.20005-1.2741-0.53738-0.272-0.11548 0.343-0.3403 0.791-0.4996 0.9955-0.37104 0.4764-0.36435 0.62 0.049374 1.0604 0.44288 0.4714 0.53902 0.4565 0.84251-0.1303z" fill="#22a7f0"/>
 </g>
</svg>
