<?xml version="1.0" encoding="UTF-8"?>
<!-- Created with Inkscape (http://www.inkscape.org/) -->
<svg id="svg1576" width="22mm" height="22mm" version="1.1" viewBox="0 0 22 22" xml:space="preserve" xmlns="http://www.w3.org/2000/svg"><g id="layer1" stroke-opacity=".61929" stroke-width=".39537"><path id="path5676" d="m6.3087 3-2.6997 2.4402v3.0888l4.0711 4.244v1.2327h-1.3872l-1.8172 1.649v1.7268l1.8515 1.6185h9.3716l2.6922-2.4804-0.032756-3.0752-5.773-5.0575v-1.4272l0.99778 0.99775h3.9444l0.85403-0.85402v-1.1753l-3.5572-2.9152z"/><path id="path4147" d="m6.6299 3.5467-2.4533 2.1429v2.5405l4.1344 4.3336v1.4432h5.6789l1.0834 0.94749v0.26178l-0.11275 0.11197h-1.6811l-0.70967 0.57529-0.0047 0.46718 2.1012 2.0958h0.66797l2.4132-2.1668v-2.5776l-5.7753-5.0432v-2.3915l2.4155-2.7405zm8.2565 0.38764-2.0325 2.3529 1.0579 1.1212h3.2155l0.63553-0.52355v-0.59768zm-8.2936 10.595-1.4572 1.3714v1.2131l1.5321 1.3529h7.0681l-1.7259-1.7938v-1.0456l1.1576-1.0981z" fill="#04a4ab"/></g></svg>
