<?xml version="1.0" encoding="UTF-8"?>
<svg version="1.1" viewBox="0 0 22 22" xmlns="http://www.w3.org/2000/svg">
 <path d="m3 3v4h-1v11c0 0.554 0.446 1 1 1h17v-11c0-0.554-0.446-1-1-1h-5v-4zm1 1h9v3h-2.5078c-0.47048-0.62732-1.208-0.99755-1.9922-1-0.78621 6.144e-4 -1.5263 0.37103-1.998 1h-2.502zm-1 4h16v3h-7c-1.108 0-2 0.892-2 2s0.892 2 2 2h7v3h-16zm10 4c0.55228 0 1 0.44772 1 1s-0.44772 1-1 1-1-0.44772-1-1 0.44772-1 1-1z" fill="#209ae7"/>
 <path d="m6 8v1h1v-1zm1 1v1h1v-1zm0 1h-1v1h1zm0 1v1h1v-1zm0 1h-1v1h1zm0 1v1h1v-1zm0 1h-1v2h2v-1h-1z" color="#000000" color-rendering="auto" fill="#209ae7" image-rendering="auto" shape-rendering="auto" solid-color="#000000" stroke-linecap="square" stroke-width="2" style="isolation:auto;mix-blend-mode:normal"/>
</svg>
