<?xml version="1.0" encoding="UTF-8"?>
<svg width="22" height="22" xmlns="http://www.w3.org/2000/svg">
 <g fill="#e3a943" fill-rule="evenodd">
  <path d="m9 3.5v5.5h0.58594l4.707-4.707-1.293-0.29297zm-2 1-2 1.5-1.5 3v4l1.5 3 2 1.5v-4.5h-3v-1h3v-2h-3v-1h3zm8.957 0.95703-3.543 3.543h5.5859v1h-6.5859l-1 1 1 1h6.5859v1h-5.5859l3.543 3.543 2.543-3.543v-4zm-6.957 7.543v5.5l4-0.5 1.043-0.54297-4.457-4.457z"/>
  <path d="m11 3a8 8 0 0 0-8 8 8 8 0 0 0 8 8 8 8 0 0 0 8-8 8 8 0 0 0-8-8zm0 1a7 7 0 0 1 7 7 7 7 0 0 1-7 7 7 7 0 0 1-7-7 7 7 0 0 1 7-7z"/>
 </g>
</svg>
