<?xml version="1.0" encoding="UTF-8"?>
<svg id="svg2" width="22" height="22" version="1.1" xmlns="http://www.w3.org/2000/svg" xmlns:cc="http://creativecommons.org/ns#" xmlns:dc="http://purl.org/dc/elements/1.1/" xmlns:rdf="http://www.w3.org/1999/02/22-rdf-syntax-ns#">
 <metadata id="metadata3874">
  <rdf:RDF>
   <cc:Work rdf:about="">
    <dc:format>image/svg+xml</dc:format>
    <dc:type rdf:resource="http://purl.org/dc/dcmitype/StillImage"/>
   </cc:Work>
  </rdf:RDF>
 </metadata>
 <g id="layer1" transform="translate(-326 -534.36)">
  <path id="rect4144" transform="translate(326 534.36)" d="m4 6v1h-1v8h1v1h14v-1h1v-8h-1v-1h-14zm0.9082 1h12.184c0.15034 0.4247 0.4835 0.75786 0.9082 0.9082v6.1836c-0.4247 0.15034-0.75786 0.4835-0.9082 0.9082h-12.184c-0.15034-0.4247-0.4835-0.75786-0.9082-0.9082v-6.1836c0.4247-0.15035 0.75786-0.4835 0.9082-0.9082zm6.0918 1c-1.662 0-3 1.338-3 3s1.338 3 3 3 3-1.338 3-3-1.338-3-3-3zm0 1c1.108 0 2 0.892 2 2s-0.892 2-2 2-2-0.892-2-2 0.892-2 2-2z" color="#4d4d4d" fill="#f59e16" stroke-opacity=".55026" stroke-width="2.8"/>
 </g>
</svg>
