<?xml version="1.0" encoding="UTF-8"?>
<svg id="svg2" width="16" height="16" version="1.1" viewBox="0 0 16 16" xmlns="http://www.w3.org/2000/svg" xmlns:cc="http://creativecommons.org/ns#" xmlns:dc="http://purl.org/dc/elements/1.1/" xmlns:rdf="http://www.w3.org/1999/02/22-rdf-syntax-ns#">
 <metadata id="metadata10">
  <rdf:RDF>
   <cc:Work rdf:about="">
    <dc:format>image/svg+xml</dc:format>
    <dc:type rdf:resource="http://purl.org/dc/dcmitype/StillImage"/>
    <dc:title/>
   </cc:Work>
  </rdf:RDF>
 </metadata>
 <path id="path4-3" d="m6 2c-1.165 0.411-2 1.507-2 2.814v0.381c0 0.74-0.404 1.378-1 1.723v2.166c0.596 0.345 1 0.981 1 1.721v0.381c0 1.307 0.835 2.403 2 2.814v-1.092c-0.596-0.345-1-0.983-1-1.723v-0.381c0-1.3-0.826-2.388-1.98-2.805 1.154-0.417 1.98-1.505 1.98-2.805v-0.381c0-0.74 0.404-1.378 1-1.723zm4 0v1.092c0.596 0.345 1 0.983 1 1.723v0.381c0 1.299 0.827 2.388 1.98 2.805-1.154 0.416-1.98 1.505-1.98 2.805v0.381c0 0.74-0.404 1.378-1 1.723v1.092c1.165-0.411 2-1.507 2-2.814v-0.381c0-0.74 0.404-1.376 1-1.721v-2.166c-0.596-0.345-1-0.983-1-1.723v-0.381c0-1.307-0.835-2.403-2-2.814" color="#000000" color-rendering="auto" fill="#cf74e0" image-rendering="auto" shape-rendering="auto"/>
</svg>
