<?xml version="1.0" encoding="UTF-8"?><svg id="svg2" width="22" height="22" version="1.1" xmlns="http://www.w3.org/2000/svg" xmlns:cc="http://creativecommons.org/ns#" xmlns:dc="http://purl.org/dc/elements/1.1/" xmlns:rdf="http://www.w3.org/1999/02/22-rdf-syntax-ns#">
 <metadata id="metadata3874">
  <rdf:RDF>
   <cc:Work rdf:about="">
    <dc:format>image/svg+xml</dc:format>
    <dc:type rdf:resource="http://purl.org/dc/dcmitype/StillImage"/>
    <dc:title/>
   </cc:Work>
  </rdf:RDF>
 </metadata>
 <g id="layer1" transform="translate(-326 -534.36)">
  <path id="rect4153" transform="translate(326 534.36)" d="m4 3c-0.55401 0-1 0.44599-1 1v14c0 0.55401 0.44599 1 1 1h11c0.55401 0 1-0.44599 1-1v-1h2c0.55401 0 1-0.44599 1-1v-3c0-0.18637-0.064268-0.35094-0.15234-0.5 0.088076-0.14906 0.15234-0.31363 0.15234-0.5v-3c0-0.18637-0.064268-0.35094-0.15234-0.5 0.088076-0.14906 0.15234-0.31363 0.15234-0.5v-3c0-0.55401-0.44599-1-1-1h-2c0-0.55401-0.44599-1-1-1h-11zm0 1h11v14h-11v-14zm1 1v3h9v-3h-9zm11 0h2v3h-2v-3zm0 4h2v3h-2v-3zm-11 1v1h9v-1h-9zm0 2v1h9v-1h-9zm11 1h2v3h-2v-3zm-11 1v1h9v-1h-9zm0 2v1h9v-1h-9z" fill="#94408b"/>
 </g>
</svg>
