<?xml version="1.0" encoding="UTF-8"?>
<svg id="svg2" width="22" height="22" version="1.1" xmlns="http://www.w3.org/2000/svg" xmlns:cc="http://creativecommons.org/ns#" xmlns:dc="http://purl.org/dc/elements/1.1/" xmlns:rdf="http://www.w3.org/1999/02/22-rdf-syntax-ns#">
 <metadata id="metadata3874">
  <rdf:RDF>
   <cc:Work rdf:about="">
    <dc:format>image/svg+xml</dc:format>
    <dc:type rdf:resource="http://purl.org/dc/dcmitype/StillImage"/>
   </cc:Work>
  </rdf:RDF>
 </metadata>
 <g id="layer1" transform="translate(-326 -534.36)">
  <path id="path3454" d="m338.5 537.36-4 15.754 1 0.24609 4-15.754-1-0.24609zm-5.2461 3-3.9746 4.6445-0.2793 0.35547 0.2793 0.35547 3.9746 4.6445 0.74609-0.70898-3.6641-4.291 3.6641-4.291-0.74609-0.70898zm9.2461 0a2.5 2.5 0 0 0-2.5 2.5v1.5h1v-1.5a1.5 1.5 0 0 1 1.5-1.5 1.5 1.5 0 0 1 1.5 1.5v2.5h-0.5a2.5 2.5 0 0 0-2.5 2.5v0.5h1v-0.5a1.5 1.5 0 0 1 1.5-1.5h1.5v-3.5a2.5 2.5 0 0 0-2.5-2.5zm-1 9a0.5 0.5 0 0 0-0.5 0.5 0.5 0.5 0 0 0 0.5 0.5 0.5 0.5 0 0 0 0.5-0.5 0.5 0.5 0 0 0-0.5-0.5z" color="#000000" fill="#8373d7" style="block-progression:tb;text-decoration-line:none;text-indent:0;text-transform:none"/>
 </g>
</svg>
