<?xml version="1.0" encoding="UTF-8"?>
<svg id="svg2" width="22" height="22" version="1.1" xmlns="http://www.w3.org/2000/svg" xmlns:cc="http://creativecommons.org/ns#" xmlns:dc="http://purl.org/dc/elements/1.1/" xmlns:rdf="http://www.w3.org/1999/02/22-rdf-syntax-ns#">
 <metadata id="metadata3874">
  <rdf:RDF>
   <cc:Work rdf:about="">
    <dc:format>image/svg+xml</dc:format>
    <dc:type rdf:resource="http://purl.org/dc/dcmitype/StillImage"/>
   </cc:Work>
  </rdf:RDF>
 </metadata>
 <g id="layer1" transform="translate(-326 -534.36)" fill="#0070ff">
  <path id="rect5505" transform="translate(326,534.36)" d="m8 3v4h1v-4zm2 1v3h1v-3zm-4 1v2h1v-2zm6 0v2h1v-2zm-8 1v1h1v-1zm10 0v1h1v-1zm-11 2v6c-4e-6 0.0033-4e-6 0.0065 0 0.0098-4.619e-4 2.2036 1.7905 3.9902 4 3.9902h-3v1h11v-1h-3c2.2095 0 4.0005-1.7866 4-3.9902v-0.009766h2c0.55401 0 1-0.44599 1-1v-3c0-0.55401-0.44599-1-1-1h-2v-1zm1 1h4v1h1l-7.324e-4 1h-0.99927v2h2v-1h-1l7.294e-4 -1h0.99927v-1h-1v-1h6v5c0 1.6569-1.3431 3-3 3h-5c-1.6569 0-3-1.3431-3-3zm12 1h2v3h-2z"/>
 </g>
</svg>
