<?xml version="1.0" encoding="UTF-8"?>
<svg width="22" height="22" version="1.1" xmlns="http://www.w3.org/2000/svg">
 <g id="layer1" transform="translate(-326 -534.36)">
  <path id="rect5669" transform="translate(326 534.36)" d="m3 3v12l-2 2h2v2h16v-2h2l-2-2.2852v-11.715h-16zm1 1h14v9.5723l-4-4.5723-4.5 4.5-2.5-2.5-3 3v-10zm3 1a2 2 0 0 0-2 2 2 2 0 0 0 2 2 2 2 0 0 0 2-2 2 2 0 0 0-2-2zm6.9512 5.4629 5.0488 5.5371h-7l-1.793-1.793 0.79297-0.79102v-0.001954l2.9512-2.9512zm-6.9512 1.9512 2 2v0.001954l1.584 1.584h-7.1699l3.5859-3.5859zm-3 4.5859h14v1h-14v-1z" fill="#32cab4" stroke-width="2"/>
 </g>
</svg>
