<?xml version="1.0" encoding="UTF-8"?>
<svg id="svg2" width="22" height="22" version="1.1" xmlns="http://www.w3.org/2000/svg" xmlns:cc="http://creativecommons.org/ns#" xmlns:dc="http://purl.org/dc/elements/1.1/" xmlns:rdf="http://www.w3.org/1999/02/22-rdf-syntax-ns#">
 <metadata id="metadata3874">
  <rdf:RDF>
   <cc:Work rdf:about="">
    <dc:format>image/svg+xml</dc:format>
    <dc:type rdf:resource="http://purl.org/dc/dcmitype/StillImage"/>
   </cc:Work>
  </rdf:RDF>
 </metadata>
 <g id="layer1" transform="translate(-326 -534.36)">
  <path id="path4" d="m329.12 537.36c-0.04 0-0.0707 0-0.0907 0.0227-0.63862 0.60442 8.0888 8.1868 8.0888 8.1868l3.2704 2.9451c-1.0546 2.3281 2.2505 2.366 2.9638 3.547 0.31331 0.51736-0.068 1.2202-0.63729 1.2568 1.1319 0.35331 2.6558-1.7035 2.1972-2.8644-0.54662-1.3868-1.1012-1.9874-2.1412-2.4088-0.4293-0.17413-1.5212-0.18801-1.9025 0.0151l-3.0305-3.171s-7.4781-7.4284-8.7167-7.5307m1.3786 7.3616c-0.28932 1e-3 -0.37864 0.39748-0.37864 0.94007 0.0547 1.0726 0.77194 4.2019 4.333 6.4821 2.9984 1.9205 8.4861 1.2265 8.3967 0.13628-1.2066-1.4183-3.2251-0.53376-3.2518-3.9294-1.1732 0.0126-2.4372-0.1653-2.3905 0.30284 0.19732 1.9584-3.0838 0.54638-4.3557-1.4511-1.2772-1.8309-1.9812-2.4808-2.3532-2.4795m4.6757 2.4164c-0.19465 0-0.35064 0.0606-0.4253 0.1817-0.14799 0.24228 0.092 0.63723 0.53729 0.88077 0.4453 0.24353 0.9266 0.24353 1.0746 1e-3 0.14799-0.24227-0.0933-0.63723-0.53863-0.8795-0.22265-0.12114-0.64795 1e-3 -0.64795-0.18297" fill="#a64d4d"/>
 </g>
</svg>
