<?xml version="1.0" encoding="UTF-8"?>
<svg width="22" height="22" version="1.1" xmlns="http://www.w3.org/2000/svg">
 <g id="layer1" transform="translate(-326 -534.36)">
  <path id="path4831" transform="translate(326 534.36)" d="m7 3c-2.2091 3e-7 -4 1.7909-4 4v1l0.31445 0.49414 0.79688 1.2539c6.315e-4 6.706e-4 0.0013213 0.0012829 0.0019531 0.0019531l5.8867 9.25v-8h5c2.2091 0 4-1.7909 4-4s-1.7909-4-4-4h-8zm8 1a3 3 0 0 1 0.57617 0.058594 3 3 0 0 1 0.019531 0.0019531c0.018082 0.0036397 0.034771 0.0097086 0.052735 0.013672a3 3 0 0 1 0.51953 0.16211 3 3 0 0 1 0.47852 0.25781c0.013455 0.0088583 0.027714 0.016323 0.041016 0.025391a3 3 0 0 1 0.005859 0.0039063 3 3 0 0 1 0.41016 0.33984c0.008198 0.0080715 0.017285 0.015273 0.02539 0.023438a3 3 0 0 1 0.32227 0.39062c0.017569 0.024946 0.035914 0.048721 0.052734 0.074219a3 3 0 0 1 0.24219 0.44922c0.007771 0.01777 0.016002 0.034787 0.023437 0.052734a3 3 0 0 1 0.1543 0.49219c0.006138 0.027544 0.014156 0.054207 0.019531 0.082031a3 3 0 0 1 0.056641 0.57227 3 3 0 0 1-0.058594 0.57617 3 3 0 0 1-0.001953 0.019531c-0.00364 0.018081-0.009708 0.034772-0.013672 0.052734a3 3 0 0 1-0.16211 0.51953 3 3 0 0 1-0.25781 0.47852c-0.008858 0.013454-0.016322 0.027714-0.02539 0.041016a3 3 0 0 1-0.003907 0.0058594 3 3 0 0 1-0.33984 0.41016c-0.008072 0.0081982-0.015273 0.017285-0.023438 0.025391a3 3 0 0 1-0.39062 0.32227c-0.024946 0.017569-0.048721 0.035915-0.074218 0.052734a3 3 0 0 1-0.44922 0.24219c-0.01777 0.0077708-0.034787 0.016003-0.052735 0.023437a3 3 0 0 1-0.49219 0.1543c-0.027544 0.0061382-0.054207 0.014156-0.082031 0.019531a3 3 0 0 1-0.57227 0.056641 3 3 0 0 1-3-3 3 3 0 0 1 3-3z" fill="#3a539b" stroke-width="6"/>
 </g>
</svg>
