<?xml version="1.0" encoding="UTF-8"?>
<svg id="svg2" width="22" height="22" version="1.1" xmlns="http://www.w3.org/2000/svg" xmlns:cc="http://creativecommons.org/ns#" xmlns:dc="http://purl.org/dc/elements/1.1/" xmlns:rdf="http://www.w3.org/1999/02/22-rdf-syntax-ns#">
 <metadata id="metadata3874">
  <rdf:RDF>
   <cc:Work rdf:about="">
    <dc:format>image/svg+xml</dc:format>
    <dc:type rdf:resource="http://purl.org/dc/dcmitype/StillImage"/>
   </cc:Work>
  </rdf:RDF>
 </metadata>
 <g id="layer1" transform="translate(-326 -534.36)">
  <path id="path4251" d="m329 539.36v13h16v-13h-16zm1 1h1.9121a1.5 1.5 0 0 1 0.0879 0.5 1.5 1.5 0 0 1-1.5 1.5 1.5 1.5 0 0 1-0.5-0.0879v-1.9121zm2.9473 0h11.053v11h-14v-0.78324l2.3262-2.2988 1.4082-1.4043 1.5645 1.418 1.1016 1.0684 3.5996-3.3984 3 2.8906v-1.4922l-3-3-3.5996 3.5996-2.5996-2.5996-3.8008 3.8008v-5.8535a2.5 2.5 0 0 0 0.5 0.0527 2.5 2.5 0 0 0 2.5-2.5 2.5 2.5 0 0 0-0.0527-0.5z" color="#000000" color-rendering="auto" fill="#4bc94b" image-rendering="auto" shape-rendering="auto" solid-color="#000000" style="isolation:auto;mix-blend-mode:normal"/>
 </g>
</svg>
