<?xml version="1.0" encoding="UTF-8"?>
<svg width="22" height="22" version="1.1" xmlns="http://www.w3.org/2000/svg">
 <g id="layer1" transform="translate(-326 -534.36)">
  <path id="path5743" transform="translate(326 534.36)" d="m10 3v3h3v-3h-3zm0 3.25-3 0.75 0.82422 0.82422 2.1758-0.54297v-1.0312zm3 0.25v1.0312l3.9375 0.98438-4.9375 1.2344v9l7-1.75v-9l-6-1.5zm-8.1328 1.0332-1.8672 0.4668v9l8 2v-9l-5.9375-1.4844 0.62891-0.15625-0.82422-0.82617zm13.133 1.748v6.4395l-5-1.25v-3.9395l5-1.25zm-5 6.2188 3.9414 0.98438-3.9414 0.98633v-1.9707z" fill="#1d7390" fill-rule="evenodd"/>
 </g>
</svg>
