<?xml version="1.0" encoding="UTF-8"?><svg width="22" height="22" version="1.1" xmlns="http://www.w3.org/2000/svg">
 <g id="layer1" transform="translate(-326 -534.36)" fill="#6c7a89" stroke-width="2">
  <path id="rect5977" transform="translate(326 534.36)" d="m5 3v16h15v-16h-15zm1 1h13v14h-13v-14z"/>
  <rect id="rect5982" x="333" y="543.36" width="5" height="5" rx="1.7e-5"/>
  <rect id="rect5984" x="333" y="550.36" width="11" height="1" rx="1.7e-5"/>
  <rect id="rect5986" x="339" y="547.36" width="5" height="1" rx="1.7e-5"/>
  <rect id="rect5988" x="339" y="543.36" width="5" height="1" rx="1.7e-5"/>
  <rect id="rect5990" x="333" y="540.36" width="11" height="1" rx="1.7e-5"/>
  <rect id="rect5992" x="328" y="541.36" width="1" height="9" rx="1.6e-5"/>
  <rect id="rect5994" x="329" y="541.36" width="2" height="1" rx="1.7e-5"/>
  <path id="path5998" transform="translate(326 534.36)" d="m2 16a3 3 0 0 0 3 3v-1a2 2 0 0 1-2-2h-1z"/>
 </g>
</svg>
