<?xml version="1.0" encoding="UTF-8"?><svg width="22" height="22" version="1.1" xmlns="http://www.w3.org/2000/svg">
 <g id="layer1" transform="translate(-326 -534.36)" fill="#6c7a89" stroke-width="2">
  <path id="path4245" transform="translate(326 534.36)" d="m11 3a8 8 0 0 0-8 8 8 8 0 0 0 8 8 8 8 0 0 0 8-8 8 8 0 0 0-8-8zm0 1a7 7 0 0 1 7 7 7 7 0 0 1-7 7 7 7 0 0 1-7-7 7 7 0 0 1 7-7z"/>
  <path id="path4290" transform="translate(326 534.36)" d="m11 6a5 5 0 0 0-5 5 5 5 0 0 0 5 5 5 5 0 0 0 3.5332-1.4668l-0.70703-0.70703a4 4 0 0 1-2.8262 1.1738 4 4 0 0 1-4-4 4 4 0 0 1 4-4 4 4 0 0 1 2.8262 1.1738l0.70703-0.70703a5 5 0 0 0-3.5332-1.4668z"/>
 </g>
</svg>
