<?xml version="1.0" encoding="UTF-8"?>
<svg viewBox="0 0 22 22" xmlns="http://www.w3.org/2000/svg">
 <path d="m1 5v3h3v6h-3v3h9v-3h-2v-2h2.5c0.27614 0 0.5 0.22386 0.5 0.5v1.5c0.0018 1.1491 0.4977 2.242 1.3613 3h7.2773c0.86363-0.75804 1.3595-1.8509 1.3613-3v-1.9863l-4-0.013672v1c0 0.55228-0.44772 1-1 1s-1-0.44772-1-1l2e-3 -0.49805c-1.59e-4 -0.66999-0.44382-1.2589-1.0879-1.4434 1.2123-0.42977 2.0859-1.574 2.0859-2.9336 0-1.7259-1.3991-3.125-3.125-3.125zm7 3h3c0.5252-2.741e-4 0.96112 0.40579 0.99805 0.92969 0.001475 0.023407 0.002127 0.046859 0.001953 0.070312v0.015625c-0.008535 0.54617-0.45376 0.98444-1 0.98438h-3z" fill="#924ab0" stroke-width=".2381"/>
</svg>
