<?xml version="1.0" encoding="UTF-8"?>
<svg id="svg1" version="1.1" viewBox="0 0 22 22" xmlns="http://www.w3.org/2000/svg">
 <g id="g19" transform="matrix(.65557 0 0 .65557 6.2647 3)" fill="#1ca8a4">
  <g id="g18" fill="#1ca8a4">
   <path id="path18" d="m7.8878 18.148c0 1.1324 0.16248 1.8923 0.48745 2.2797 0.32496 0.3874 0.91581 0.5811 1.7725 0.5811 0.8863 0 2.0237-0.447 3.4122-1.341l0.8863 1.4751c-2.5998 2.1754-4.7416 3.2631-6.4255 3.2631s-3.0133-0.4023-3.9882-1.2069c-0.9749-0.8344-1.4624-2.2946-1.4624-4.3806v-11.711h-2.2157l-0.35451-1.6539 2.5702-0.80459v-2.1903l5.3176-2.4585v4.917l5.229-0.4023-0.4875 2.9055-4.7416-0.1788z" fill="#1ca8a4"/>
  </g>
 </g>
</svg>
