<?xml version="1.0" encoding="UTF-8"?>
<svg id="svg2" width="22" height="22" version="1.1" xmlns="http://www.w3.org/2000/svg" xmlns:cc="http://creativecommons.org/ns#" xmlns:dc="http://purl.org/dc/elements/1.1/" xmlns:rdf="http://www.w3.org/1999/02/22-rdf-syntax-ns#">
 <metadata id="metadata3874">
  <rdf:RDF>
   <cc:Work rdf:about="">
    <dc:format>image/svg+xml</dc:format>
    <dc:type rdf:resource="http://purl.org/dc/dcmitype/StillImage"/>
    <dc:title/>
   </cc:Work>
  </rdf:RDF>
 </metadata>
 <g id="layer1" transform="translate(-326 -534.36)">
  <path id="path20" d="m344.27 553.36-4.866 3e-3 -3.3161-4.8076s-0.5339-0.90062-0.86217-1.1621c-0.27368-0.21767-0.39068-0.29556-0.66152-0.29556h-0.61544l1e-3 6.259-4.2244 1e-3v-15.995h9.1974s3.7274 0.67458 3.8032 4.2958c0.0844 4.0371-3.6025 5.2249-3.6025 5.2249 0.50554 0.20307 4.5725 5.5406 5.1468 6.4732m-7.2923-12.525-2.9864-1e-3 -9.9e-4 2.7199 2.9878-6.8e-4s1.384-4e-3 1.384-1.3832c0-1.4069-1.384-1.3332-1.384-1.3332" fill="#209ae7" fill-rule="evenodd"/>
 </g>
</svg>
