<?xml version="1.0" encoding="UTF-8"?><svg width="22" height="22" version="1.1" xmlns="http://www.w3.org/2000/svg">
 <g id="layer1" transform="translate(-326 -534.36)" fill="#04896a">
  <path id="rect4376" transform="translate(326 534.36)" d="m3 3v16h11v-10h4v4h1v-10h-16zm1 1h14v4h-14v-4zm0 5h4v4h-4v-4zm5 0h4v4h-4v-4zm-5 5h4v4h-4v-4zm5 0h4v4h-4v-4z" stroke-width="2"/>
  <path id="rect4031" d="m342.5 548.36c-0.83101 0-1.5 0.63799-1.5 1.4297 0 0.7634 0.62316 1.3763 1.4121 1.4199 0.0575 0.2617 0.0869 0.52812 0.0879 0.79492-2e-3 0.4631-0.0888 0.92207-0.25781 1.3555 1.1-0.7343 1.7558-1.9329 1.7578-3.2129v-0.35742c0-0.7918-0.669-1.4297-1.5-1.4297z"/>
 </g>
</svg>
