<?xml version="1.0" encoding="UTF-8"?>
<svg id="svg2" width="22" height="22" version="1.1" xmlns="http://www.w3.org/2000/svg" xmlns:cc="http://creativecommons.org/ns#" xmlns:dc="http://purl.org/dc/elements/1.1/" xmlns:rdf="http://www.w3.org/1999/02/22-rdf-syntax-ns#">
 <metadata id="metadata3874">
  <rdf:RDF>
   <cc:Work rdf:about="">
    <dc:format>image/svg+xml</dc:format>
    <dc:type rdf:resource="http://purl.org/dc/dcmitype/StillImage"/>
   </cc:Work>
  </rdf:RDF>
 </metadata>
 <g id="layer1" transform="translate(-326 -534.36)">
  <path id="path10" transform="translate(326 534.36)" d="m3.8535 4c-0.47177 0-0.85352 0.39121-0.85352 0.875v12.25c0 0.48378 0.38175 0.875 0.85352 0.875h14.293c0.47017 0 0.85352-0.39122 0.85352-0.875v-12.252c-2e-3 -0.48212-0.38368-0.87305-0.85547-0.87305h-14.291zm9.625 1a0.5 0.5 0 0 1 0.52148 0.4707v0.029297a0.5 0.5 0 0 1-0.49219 0.5 0.5 0.5 0 0 1-0.50781-0.48633 0.5 0.5 0 0 1 0.47852-0.51367zm2 0a0.5 0.5 0 0 1 0.52148 0.4707v0.029297a0.5 0.5 0 0 1-0.49219 0.5 0.5 0.5 0 0 1-0.50781-0.48633 0.5 0.5 0 0 1 0.47852-0.51367zm2 0a0.5 0.5 0 0 1 0.52148 0.4707v0.029297a0.5 0.5 0 0 1-0.49219 0.5 0.5 0.5 0 0 1-0.50781-0.48633 0.5 0.5 0 0 1 0.47852-0.51367zm-13.479 2h14v10h-14v-10z" fill="#52a743"/>
 </g>
</svg>
