<?xml version="1.0" encoding="UTF-8"?>
<svg id="svg2" width="22" height="22" version="1.1" xmlns="http://www.w3.org/2000/svg" xmlns:cc="http://creativecommons.org/ns#" xmlns:dc="http://purl.org/dc/elements/1.1/" xmlns:rdf="http://www.w3.org/1999/02/22-rdf-syntax-ns#">
 <metadata id="metadata3874">
  <rdf:RDF>
   <cc:Work rdf:about="">
    <dc:format>image/svg+xml</dc:format>
    <dc:type rdf:resource="http://purl.org/dc/dcmitype/StillImage"/>
    <dc:title/>
   </cc:Work>
  </rdf:RDF>
 </metadata>
 <g id="layer1" transform="translate(-326 -534.36)" fill="#8096a0">
  <path id="path6" d="m339.11 542.76c0.0197-0.15765 0.0345-0.31776 0.0345-0.48033 0-0.16258-0.0147-0.32269-0.0345-0.48033l1.042-0.81534c0.0936-0.0739 0.1207-0.20691 0.0591-0.31529l-0.9853-1.707c-0.0616-0.10592-0.18966-0.15026-0.3005-0.10592l-1.2267 0.49511c-0.25371-0.1946-0.53207-0.35963-0.83258-0.48526l-0.18474-1.3055c-0.0222-0.11577-0.12317-0.20691-0.24633-0.20691h-1.9706c-0.12317 0-0.22416 0.0911-0.24387 0.20691l-0.18474 1.3055c-0.30052 0.12563-0.57887 0.2882-0.83258 0.48526l-1.2267-0.49511c-0.11084-0.0419-0.23893 0-0.3005 0.10592l-0.9853 1.707c-0.0616 0.10591-0.0345 0.23893 0.0592 0.31529l1.0395 0.81534c-0.0197 0.15764-0.0345 0.31775-0.0345 0.48033 0 0.16257 0.0147 0.32268 0.0345 0.48033l-1.0395 0.81534c-0.0936 0.0739-0.1207 0.20691-0.0592 0.31529l0.9853 1.707c0.0616 0.10592 0.18966 0.15026 0.3005 0.10592l1.2267-0.49511c0.25371 0.19459 0.53206 0.35963 0.83258 0.48526l0.18474 1.3055c0.0197 0.11577 0.1207 0.20692 0.24387 0.20692h1.9706c0.12316 0 0.22415-0.0911 0.24386-0.20692l0.18475-1.3055c0.30051-0.12563 0.57886-0.28821 0.83258-0.48526l1.2267 0.49511c0.11085 0.0419 0.23894 0 0.30051-0.10592l0.9853-1.707c0.0616-0.10592 0.0345-0.23893-0.0592-0.31529l-1.0395-0.81534zm-3.6604 1.2439c-0.95327 0-1.7243-0.77099-1.7243-1.7243s0.771-1.7243 1.7243-1.7243c0.95328 0 1.7243 0.77099 1.7243 1.7243s-0.771 1.7243-1.7243 1.7243z"/>
  <path id="path6-7" d="m341.93 551.46c0.068-0.0944 0.13361-0.19212 0.19063-0.29659 0.057-0.10448 0.10368-0.21256 0.14631-0.32079l0.9556-0.15853c0.0861-0.0147 0.15014-0.0906 0.14857-0.1819l-0.0345-1.4426c-2e-3 -0.0897-0.0692-0.16309-0.15598-0.17347l-0.96201-0.11206c-0.0948-0.21405-0.2158-0.41774-0.36486-0.60387l0.33916-0.90381c0.0264-0.0822-6e-3 -0.17618-0.0857-0.21937l-1.2664-0.69116c-0.0791-0.0432-0.17602-0.02-0.2293 0.0475l-0.57662 0.77421c-0.23719-0.0247-0.4731-0.0178-0.70527 0.0198l-0.61469-0.74844c-0.0565-0.0658-0.15355-0.0838-0.23028-0.0373l-1.2319 0.75145c-0.0767 0.0464-0.10597 0.14147-0.0726 0.22337l0.38208 0.88858c-0.068 0.0944-0.13361 0.19211-0.19064 0.29659-0.057 0.10448-0.10368 0.21256-0.1463 0.32079l-0.95401 0.1594c-0.0861 0.0147-0.15014 0.0906-0.14858 0.18189l0.0345 1.4426c2e-3 0.0897 0.0692 0.16309 0.15598 0.17348l0.96201 0.11205c0.0948 0.21405 0.21579 0.41774 0.36487 0.60387l-0.33917 0.90381c-0.0279 0.0813 5e-3 0.17531 0.0841 0.2185l1.2664 0.69117c0.0791 0.0432 0.17601 0.02 0.22929-0.0475l0.57662-0.77422c0.2372 0.0247 0.4731 0.0178 0.70526-0.0198l0.6147 0.74844c0.0565 0.0658 0.15356 0.0838 0.23028 0.0373l1.2319-0.75146c0.0767-0.0465 0.10597-0.14146 0.0726-0.22336l-0.38207-0.88857zm-2.7887-0.4844c-0.61263-0.33434-0.83771-1.1002-0.50336-1.7129 0.33435-0.61264 1.1003-0.83772 1.7129-0.50337s0.83771 1.1003 0.50336 1.7129c-0.33435 0.61264-1.1003 0.83771-1.7129 0.50336z"/>
 </g>
</svg>
