<?xml version="1.0" encoding="UTF-8"?><svg id="svg3869" width="22" height="22" version="1.1" xmlns="http://www.w3.org/2000/svg" xmlns:cc="http://creativecommons.org/ns#" xmlns:dc="http://purl.org/dc/elements/1.1/" xmlns:rdf="http://www.w3.org/1999/02/22-rdf-syntax-ns#">
 <metadata id="metadata3874">
  <rdf:RDF>
   <cc:Work rdf:about="">
    <dc:format>image/svg+xml</dc:format>
    <dc:type rdf:resource="http://purl.org/dc/dcmitype/StillImage"/>
    <dc:title/>
   </cc:Work>
  </rdf:RDF>
 </metadata>
 <g id="layer1" transform="translate(-326 -534.36)">
  <path id="rect40" d="m335 539.36v2h2v-2zm3 0v2h2v-2zm4.6836 2.6738c-0.63618 0.43601-0.78818 1.2254-0.58984 1.9707 0.20054 0.74476 0.70761 1.282 1.4766 1.3418 0.25697 0.72682 0.94393 1.2138 1.7148 1.2148 0.77091-1e-3 1.4579-0.48802 1.7148-1.2148-0.25697-0.72683-0.94393-1.2118-1.7148-1.2129-0.36778 1e-3 -0.72665 0.1133-1.0293 0.32226 0.12298-0.3471 0.13813-0.72434 0.043-1.0801-0.20025-0.74398-0.84719-1.281-1.6152-1.3418zm0.88672 3.3125h-14.57c0 4.0236 3.2616 6.0723 7.2852 6.0723s7.2852-2.0487 7.2852-6.0723zm-12.57-2.9863v2h2v-2zm3 0v2h2v-2zm3 0v2h2v-2zm3 0v2h2v-2zm-8 4a1 1 0 0 1 1 1 1 1 0 0 1-1 1 1 1 0 0 1-1-1 1 1 0 0 1 1-1z" color="#000000" color-rendering="auto" fill="#22a7f0" image-rendering="auto" shape-rendering="auto" solid-color="#000000" style="isolation:auto;mix-blend-mode:normal"/>
 </g>
</svg>
