<?xml version="1.0" encoding="UTF-8"?>
<svg width="22" height="22" version="1.1" xmlns="http://www.w3.org/2000/svg">
 <g id="layer1" transform="translate(-326 -534.36)">
  <g id="layer1-4" transform="translate(-95.714 8.5715)" fill="#6c7a89">
   <path id="path4144-8" d="m428.21 528.79a1.5 1.5 0 0 0-1.5 1.5 1.5 1.5 0 0 0 1 1.4121v9.0879a2 2 0 0 0 2 2h1v2l3-2.5-3-2.5v2h-1a1 1 0 0 1-1-1v-9.0879a1.5 1.5 0 0 0 1-1.4121 1.5 1.5 0 0 0-1.5-1.5zm0 1a0.5 0.5 0 0 1 0.5 0.5 0.5 0.5 0 0 1-0.5 0.5 0.5 0.5 0 0 1-0.5-0.5 0.5 0.5 0 0 1 0.5-0.5z"/>
   <path id="path4144-8-6" d="m437.21 544.79a1.5 1.5 0 0 0 1.5-1.5 1.5 1.5 0 0 0-1-1.4121v-9.0879a2 2 0 0 0-2-2h-1v-2l-3 2.5 3 2.5v-2h1a1 1 0 0 1 1 1v9.0879a1.5 1.5 0 0 0-1 1.4121 1.5 1.5 0 0 0 1.5 1.5zm0-1a0.5 0.5 0 0 1-0.5-0.5 0.5 0.5 0 0 1 0.5-0.5 0.5 0.5 0 0 1 0.5 0.5 0.5 0.5 0 0 1-0.5 0.5z"/>
  </g>
 </g>
</svg>
