<?xml version="1.0" encoding="UTF-8"?>
<svg width="22" height="22" version="1.1" xmlns="http://www.w3.org/2000/svg">
 <path id="rect4274" d="m3 3v1h16v-1h-16zm6 2.666v1.0254l4.2871 5.6426-4.2871 5.1289v1.5371h10v-4h-0.56445c0 0.7404 0.001553 1.496-0.64844 1.9395-0.71255 0.48653-1.6513 0.57812-2.4766 0.57812h-3.9297l3.8086-5.1836-3.8086-5.9277h2.2383c1.5879 0 3.8483-0.14285 4.4766 1.7129 0.10741 0.3168 0.17805 1.5479 0.20508 1.8809h0.69922v-4.334h-10zm-6 1.334v1h5v-1h-5zm0 3v1h7v-1h-7zm0 3v1h7v-1h-7zm0 3v1h5v-1h-5z" fill="#8e44ad"/>
</svg>
