<?xml version="1.0" encoding="UTF-8"?><svg id="svg2" width="22" height="22" version="1.1" xmlns="http://www.w3.org/2000/svg" xmlns:cc="http://creativecommons.org/ns#" xmlns:dc="http://purl.org/dc/elements/1.1/" xmlns:rdf="http://www.w3.org/1999/02/22-rdf-syntax-ns#">
 <metadata id="metadata3874">
  <rdf:RDF>
   <cc:Work rdf:about="">
    <dc:format>image/svg+xml</dc:format>
    <dc:type rdf:resource="http://purl.org/dc/dcmitype/StillImage"/>
   </cc:Work>
  </rdf:RDF>
 </metadata>
 <g id="layer1" transform="translate(-326 -534.36)">
  <path id="rect3009" transform="translate(326 533.86)" d="m3 4v15h16v-15h-16zm1 1h1v1h-1v-1zm2 0h10v5.5h-10v-5.5zm11 0h1v1h-1v-1zm-13 3h1v1h-1v-1zm13 0h1v1h-1v-1zm-13 3h1v1h-1v-1zm13 0h1v1h-1v-1zm-11 1.5h10v5.5h-10v-5.5zm-2 1.5h1v1h-1v-1zm13 0h1v1h-1v-1zm-13 3h1v1h-1v-1zm13 0h1v1h-1v-1z" color="#000000" color-rendering="auto" fill="#35bedc" image-rendering="auto" shape-rendering="auto" solid-color="#000000" style="filter-blend-mode:normal;filter-gaussianBlur-deviation:0;isolation:auto;mix-blend-mode:normal"/>
 </g>
</svg>
