<?xml version="1.0" encoding="UTF-8"?>
<svg width="22" height="22" version="1.1" xmlns="http://www.w3.org/2000/svg">
 <g id="layer1" transform="translate(-326 -534.36)">
  <path id="rect4153" d="m329 537.36v16h16v-16h-16zm1 1h14v2h-14v-2zm0 3h1v2h-1v-2zm2 0h1v2h-1v-2zm2 0h1v2h-1v-2zm2 0h1v2h-1v-2zm2 0h1v2h-1v-2zm2 0h1v2h-1v-2zm2 0h2v1h-2v-1zm-12 3h14v2h-14v-2zm0 3h1v2h-1v-2zm2 0h1v2h-1v-2zm2 0h1v2h-1v-2zm2 0h1v2h-1v-2zm2 0h1v2h-1v-2zm2 0h1v2h-1v-2zm2 0h2v1h-2v-1zm-12 3h14v2h-14v-2z" fill="#f27935" stroke-linecap="square" stroke-width="2"/>
 </g>
</svg>
