<?xml version="1.0" encoding="UTF-8"?>
<svg version="1.1" viewBox="0 0 22 22" xmlns="http://www.w3.org/2000/svg">
 <g transform="translate(-326 -534.36)">
  <path d="m330 536.36v2.9922h3v-2.9922h-3zm14 0c-5.2545 3e-3 -9.9897 2.1957-12 5.5566v-2.5566h-1v3.5508c-1.1639 0.23758-1.9999 1.2613-2 2.4492 2e-3 1.1864 0.83756 2.208 2 2.4453v3.5547h-1v3h3v-3h-1v-2.5449c2.0156 3.3564 6.7496 5.5438 12 5.5449v-1c-5.3036-3e-3 -9.9753-2.3264-11.49-5.7148 0.90521-0.39968 1.4895-1.2956 1.4902-2.2852-1e-3 -0.99044-0.5874-1.8867-1.4941-2.2852 1.5154-3.3893 6.1891-5.7131 11.494-5.7148v-1zm-13 1.0352h1v1h-1v-1zm0.5 6.4648a1.5 1.5 0 0 1 1.5 1.5 1.5 1.5 0 0 1-1.5 1.5 1.5 1.5 0 0 1-1.5-1.5 1.5 1.5 0 0 1 1.5-1.5zm-0.5 8.5h1v1h-1v-1z" fill="#f9b425"/>
 </g>
</svg>
