<?xml version="1.0" encoding="UTF-8"?>
<svg id="svg6" version="1.1" viewBox="0 0 22 22" xmlns="http://www.w3.org/2000/svg">
 <defs id="defs3051">
  <style id="current-color-scheme" type="text/css">.ColorScheme-Text {
        color:#eff0f1;
      }</style>
 </defs>
 <path id="path4" class="ColorScheme-Text" d="m11 3a4 4 0 0 0-4 4 4 4 0 0 0 4 4 4 4 0 0 0 4-4 4 4 0 0 0-4-4zm0 1a3 3 0 0 1 3 3 3 3 0 0 1-3 3 3 3 0 0 1-3-3 3 3 0 0 1 3-3zm0 8a8 8 0 0 0-7.9277 7h1.0078a7 7 0 0 1 6.9199-6 7 7 0 0 1 6.9219 6h1.0078a8 8 0 0 0-7.9297-7z" fill="#808080"/>
 <rect id="rect343" x="3.4256" y="18.005" width="15.282" height=".99254" fill="#808080" stroke-opacity="0"/>
</svg>
