<?xml version="1.0" encoding="UTF-8"?>
<svg id="svg6" width="22" height="22" version="1.1" viewBox="0 0 22 22" xmlns="http://www.w3.org/2000/svg">
 <defs id="defs3051">
  <style id="current-color-scheme" type="text/css">.ColorScheme-Text {
        color:#232629;
      }</style>
 </defs>
 <path id="path4" class="ColorScheme-Text" d="m9 3c-3.324 0-6 2.6791-6 5.998 0 3.3229 2.68 5.998 6 5.998 1.4182 0 2.7018-0.5081 3.7266-1.3251l5.3307 5.329 0.94271-0.9424-5.3307-5.329c0.82087-1.026 1.3307-2.3106 1.3307-3.7306 0-3.3229-2.68-5.998-6-5.998zm0 1.3329c2.5853 0 4.6667 2.0807 4.6667 4.6651 0 2.5845-2.0813 4.6651-4.6667 4.6651-2.5853 0-4.6667-2.0807-4.6667-4.6651 0-2.5845 2.0813-4.6651 4.6667-4.6651z" fill="#696c6e"/>
</svg>
