<?xml version="1.0" encoding="UTF-8"?>
<svg id="svg5" width="16mm" height="16mm" version="1.1" viewBox="0 0 16 16" xmlns="http://www.w3.org/2000/svg">
 <g id="layer1" transform="matrix(.065948 0 0 .065948 1.4052 1.4053)" fill="#696c6e" stroke-opacity="0">
  <path id="path320" d="m56.143 9.0159a20 20 0 0 0-20.005 20.005 20 20 0 0 0 20.005 19.997 20 20 0 0 0 19.997-19.997 20 20 0 0 0-19.997-20.005zm87.715 0a20 20 0 0 0-19.997 20.005 20 20 0 0 0 19.997 19.997 20 20 0 0 0 20.005-19.997 20 20 0 0 0-20.005-20.005zm-87.715 70.986a20 20 0 0 0-20.005 19.997 20 20 0 0 0 20.005 19.997 20 20 0 0 0 19.997-19.997 20 20 0 0 0-19.997-19.997zm87.715 0a20 20 0 0 0-19.997 19.997 20 20 0 0 0 19.997 19.997 20 20 0 0 0 20.005-19.997 20 20 0 0 0-20.005-19.997zm-87.715 70.978a20 20 0 0 0-20.005 19.997 20 20 0 0 0 20.005 20.005 20 20 0 0 0 19.997-20.005 20 20 0 0 0-19.997-19.997zm87.715 0a20 20 0 0 0-19.997 19.997 20 20 0 0 0 19.997 20.005 20 20 0 0 0 20.005-20.005 20 20 0 0 0-20.005-19.997z" fill="#3daee9"/>
 </g>
</svg>
