<?xml version="1.0" encoding="UTF-8" standalone="no"?>
<svg
   viewBox="0 0 16 16"
   version="1.1"
   id="svg3769"
   sodipodi:docname="edit-redo.svg"
   inkscape:version="1.2.2 (b0a8486541, 2022-12-01)"
   xmlns:inkscape="http://www.inkscape.org/namespaces/inkscape"
   xmlns:sodipodi="http://sodipodi.sourceforge.net/DTD/sodipodi-0.dtd"
   xmlns="http://www.w3.org/2000/svg"
   xmlns:svg="http://www.w3.org/2000/svg">
  <sodipodi:namedview
     id="namedview3771"
     pagecolor="#ffffff"
     bordercolor="#000000"
     borderopacity="0.25"
     inkscape:showpageshadow="2"
     inkscape:pageopacity="0.0"
     inkscape:pagecheckerboard="0"
     inkscape:deskcolor="#d1d1d1"
     showgrid="false"
     inkscape:zoom="51.6875"
     inkscape:cx="8"
     inkscape:cy="8.019347"
     inkscape:window-width="1920"
     inkscape:window-height="1008"
     inkscape:window-x="0"
     inkscape:window-y="0"
     inkscape:window-maximized="1"
     inkscape:current-layer="svg3769" />
  <defs
     id="defs3051">
    <style
       type="text/css"
       id="current-color-scheme">
      .ColorScheme-Text {
        color:#eff0f1;
      }
      </style>
  </defs>
  <path
     style="fill:#8d8f91;fill-opacity:1;stroke:none"
     d="M 9.5 2 L 8.78125 2.71875 L 11.09375 5 L 10 5 L 8.8125 5 L 8 5 L 7.5 5 C 5.0147171 5 3 7.0147479 3 9.5 C 3 11.985252 5.0147171 14 7.5 14 L 8 14 L 9 14 L 9 13 L 8 13 L 7.5 13 C 5.5670021 13 4 11.433002 4 9.5 C 4 7.5669984 5.5670021 6 7.5 6 L 8 6 L 8.8125 6 L 10 6 L 11.09375 6 L 8.78125 8.28125 L 9.5 9 L 12.78125 5.71875 L 13 5.5 L 12.78125 5.28125 L 9.5 2 z "
     class="ColorScheme-Text"
     id="path3767" />
</svg>
