<?xml version="1.0" encoding="UTF-8"?>
<svg id="svg46" version="1.1" viewBox="0 0 16 16" xmlns="http://www.w3.org/2000/svg">
 <defs id="defs3051">
  <style id="current-color-scheme" type="text/css">.ColorScheme-Text {
        color:#232629;
      }
      .ColorScheme-NegativeText {
        color:#da4453;
      }</style>
 </defs>
 <path id="path953" d="m9.1608 9.8498c-0.61434-0.61504-1.1285-1.1261-1.1426-1.1357-0.018755-0.012823-0.31979 0.27679-1.1267 1.0839-0.60559 0.60578-1.1202 1.1185-1.1436 1.1394-0.042442 0.037912-0.042669 0.037857-0.11271-0.027058-0.038598-0.035775-0.19318-0.18996-0.34352-0.34264l-0.27334-0.2776 1.1404-1.1394c0.62725-0.62668 1.1403-1.1442 1.1402-1.1501-1.374e-4 -0.0058651-0.51388-0.52415-1.1416-1.1517l-1.1414-1.1411 0.69001-0.69047 0.14907 0.14876c0.081986 0.081817 0.59219 0.59267 1.1338 1.1352 0.5416 0.54256 0.99519 0.98707 1.008 0.9878 0.0128 7.267e-4 0.52985-0.50602 1.149-1.1261 0.61915-0.62009 1.132-1.1301 1.1397-1.1333 0.01809-0.00761 0.69093 0.66391 0.68438 0.68305-0.0027 0.00799-0.51691 0.52613-1.1426 1.1514l-1.1376 1.1369 0.18495 0.18227c0.10172 0.10025 0.56469 0.56312 1.0288 1.0286 0.46412 0.46549 0.89677 0.89915 0.96143 0.9637l0.11757 0.11735-0.32819 0.33138c-0.1805 0.18226-0.33905 0.33416-0.35232 0.33757-0.01327 0.0034-0.52677-0.49702-1.1411-1.1121z" fill="#8d8f91" stroke-width=".019347"/>
</svg>
