<?xml version="1.0" encoding="UTF-8" standalone="no"?>
<svg
   viewBox="0 0 16 16"
   version="1.1"
   id="svg3276"
   sodipodi:docname="edit-undo.svg"
   inkscape:version="1.2.2 (b0a8486541, 2022-12-01)"
   xmlns:inkscape="http://www.inkscape.org/namespaces/inkscape"
   xmlns:sodipodi="http://sodipodi.sourceforge.net/DTD/sodipodi-0.dtd"
   xmlns="http://www.w3.org/2000/svg"
   xmlns:svg="http://www.w3.org/2000/svg">
  <sodipodi:namedview
     id="namedview3278"
     pagecolor="#ffffff"
     bordercolor="#000000"
     borderopacity="0.25"
     inkscape:showpageshadow="2"
     inkscape:pageopacity="0.0"
     inkscape:pagecheckerboard="0"
     inkscape:deskcolor="#d1d1d1"
     showgrid="false"
     inkscape:zoom="51.6875"
     inkscape:cx="8"
     inkscape:cy="8.019347"
     inkscape:window-width="1920"
     inkscape:window-height="1008"
     inkscape:window-x="0"
     inkscape:window-y="0"
     inkscape:window-maximized="1"
     inkscape:current-layer="svg3276" />
  <defs
     id="defs3051">
    <style
       type="text/css"
       id="current-color-scheme">
      .ColorScheme-Text {
        color:#eff0f1;
      }
      </style>
  </defs>
  <path
     style="fill:#8d8f91;fill-opacity:1;stroke:none"
     d="M 6.5 2 L 3.21875 5.28125 L 3 5.5 L 3.21875 5.71875 L 6.5 9 L 7.21875 8.28125 L 4.90625 6 L 6 6 L 7.1875 6 L 8 6 L 8.5 6 C 10.432998 6 12 7.5669984 12 9.5 C 12 11.433002 10.432998 13 8.5 13 L 8 13 L 7 13 L 7 14 L 8 14 L 8.5 14 C 10.985283 14 13 11.985252 13 9.5 C 13 7.0147479 10.985283 5 8.5 5 L 8 5 L 7.1875 5 L 6 5 L 4.90625 5 L 7.21875 2.71875 L 6.5 2 z "
     class="ColorScheme-Text"
     id="path3274" />
</svg>
