<?xml version="1.0" encoding="UTF-8" standalone="no"?>
<svg
   viewBox="0 0 22 22"
   version="1.1"
   id="svg17"
   sodipodi:docname="vcs-branch.svg"
   inkscape:version="1.2.2 (b0a8486541, 2022-12-01)"
   xml:space="preserve"
   xmlns:inkscape="http://www.inkscape.org/namespaces/inkscape"
   xmlns:sodipodi="http://sodipodi.sourceforge.net/DTD/sodipodi-0.dtd"
   xmlns="http://www.w3.org/2000/svg"
   xmlns:svg="http://www.w3.org/2000/svg"><defs
     id="defs21" /><sodipodi:namedview
     id="namedview19"
     pagecolor="#ffffff"
     bordercolor="#000000"
     borderopacity="0.25"
     inkscape:showpageshadow="2"
     inkscape:pageopacity="0.0"
     inkscape:pagecheckerboard="0"
     inkscape:deskcolor="#d1d1d1"
     showgrid="false"
     inkscape:zoom="13.290394"
     inkscape:cx="0.26334811"
     inkscape:cy="12.9793"
     inkscape:window-width="1920"
     inkscape:window-height="1008"
     inkscape:window-x="0"
     inkscape:window-y="0"
     inkscape:window-maximized="1"
     inkscape:current-layer="g3208" /><style
     type="text/css"
     id="current-color-scheme">
        .ColorScheme-Text {
            color:#eff0f1;
        }
        .ColorScheme-Highlight {
            color:#3daee9;
        }
    </style><g
     stroke-linecap="square"
     id="g15"><g
       id="g3279"
       transform="matrix(1.4545455,0,0,1.3333333,11.154777,36.679967)"><g
         id="g3208"><g
           id="g4003"><path
             d="m -4.1064087,-25.259976 c -0.8284271,0 -1.5,0.671573 -1.5,1.5 0,0.828427 0.6715729,1.5 1.5,1.5 0.8284271,0 1.5,-0.671573 1.5,-1.5 0,-0.828427 -0.6715729,-1.5 -1.5,-1.5 z"
             id="path2789"
             style="color:#eff0f1;fill:#696c6e;fill-opacity:1;stroke-linecap:square"
             sodipodi:nodetypes="sssss" /><path
             d="m -4.6064087,-23.259976 h 1 v 8 h -1 z"
             id="path2791"
             style="color:#eff0f1;fill:#696c6e;fill-opacity:1;stroke-linecap:square" /><path
             d="m 3.3935913,-23.259976 v 2 a 1,1 0 0 1 -1,1 h -5 a 2,2 0 0 0 -0.048828,0 2,2 0 0 0 -1.9511719,2 h 1 a 1,1 0 0 1 1,-1 h 5 a 2,2 0 0 0 0.048828,0 2,2 0 0 0 1.951172,-2 v -2 z"
             id="path2793"
             style="color:#eff0f1;fill:#696c6e;fill-opacity:1;stroke-linecap:square" /><path
             d="m -4.1064087,-16.259976 c -0.8284271,0 -1.5,0.671573 -1.5,1.5 0,0.828427 0.6715729,1.5 1.5,1.5 0.8284271,0 1.5,-0.671573 1.5,-1.5 0,-0.828427 -0.6715729,-1.5 -1.5,-1.5 z"
             id="path2795"
             style="color:#eff0f1;fill:#696c6e;fill-opacity:1;stroke-linecap:square"
             sodipodi:nodetypes="sssss" /><path
             d="m 3.8935913,-25.259976 c -0.8284271,0 -1.5,0.671573 -1.5,1.5 0,0.828427 0.6715729,1.5 1.5,1.5 0.8284271,0 1.5,-0.671573 1.5,-1.5 0,-0.828427 -0.6715729,-1.5 -1.5,-1.5 z"
             class="ColorScheme-Highlight"
             fill="currentColor"
             id="path2799"
             style="fill:#696c6e;fill-opacity:1;stroke-linecap:square"
             sodipodi:nodetypes="sssss" /></g></g></g></g><style
     type="text/css"
     id="current-color-scheme-6">
        .ColorScheme-Text {
            color:#eff0f1;
        }
        .ColorScheme-Highlight {
            color:#3daee9;
        }
    </style></svg>
