<?xml version="1.0" encoding="UTF-8"?>
<svg id="svg17" version="1.1" viewBox="0 0 22 22" xml:space="preserve" xmlns="http://www.w3.org/2000/svg"><style id="current-color-scheme" type="text/css">
        .ColorScheme-Text {
            color:#eff0f1;
        }
        .ColorScheme-Highlight {
            color:#3daee9;
        }
    </style><g id="g15" stroke-linecap="square"><g id="g3279" transform="matrix(1.4545 0 0 1.3333 11.155 36.68)"><g id="g3208"><g id="g4003" fill="#696c6e" stroke-linecap="square"><path id="path2789" d="m-4.1064-25.26c-0.82843 0-1.5 0.67157-1.5 1.5s0.67157 1.5 1.5 1.5 1.5-0.67157 1.5-1.5-0.67157-1.5-1.5-1.5z" color="#eff0f1"/><path id="path2791" d="m-4.6064-23.26h1v8h-1z" color="#eff0f1"/><path id="path2793" d="m3.3936-23.26v2a1 1 0 0 1-1 1h-5a2 2 0 0 0-0.048828 0 2 2 0 0 0-1.9512 2h1a1 1 0 0 1 1-1h5a2 2 0 0 0 0.048828 0 2 2 0 0 0 1.9512-2v-2z" color="#eff0f1"/><path id="path2795" d="m-4.1064-16.26c-0.82843 0-1.5 0.67157-1.5 1.5s0.67157 1.5 1.5 1.5 1.5-0.67157 1.5-1.5-0.67157-1.5-1.5-1.5z" color="#eff0f1"/><path id="path2799" class="ColorScheme-Highlight" d="m3.8936-25.26c-0.82843 0-1.5 0.67157-1.5 1.5s0.67157 1.5 1.5 1.5 1.5-0.67157 1.5-1.5-0.67157-1.5-1.5-1.5z"/></g></g></g></g><style id="current-color-scheme-6" type="text/css">
        .ColorScheme-Text {
            color:#eff0f1;
        }
        .ColorScheme-Highlight {
            color:#3daee9;
        }
    </style></svg>
