<?xml version="1.0" encoding="UTF-8"?>
<svg width="400" height="300" version="1.1" viewBox="0 0 105.83 79.375" xmlns="http://www.w3.org/2000/svg">
 <rect x="1.8623" y=".23279" fill="#823d46" stroke-width=".26458"/>
 <rect x="8.8818e-16" y=".076407" width="105.83" height="79.375" fill="#2a2e32" stroke-width=".33552"/>
 <path d="m0 0.0038471v31.746h6.6146l2e-7 -6.6146h92.604v22.49h6.6146l-1e-5 -47.614z" fill="#590000" stroke-width=".3356"/>
 <rect x="6.391" y="-6.2424" width=".89176" height=".44588" rx="4.8333" ry=".44588" fill="#e5e9eb" stroke-width=".26458"/>
 <path d="m105.83 79.614v-31.989h-6.6146v6.8536h-92.604l1.73e-5 -22.729h-6.6146v47.864z" fill="#000080" stroke-width=".3356"/>
 <rect x="6.6146" y="24.077" width="92.604" height="31.75" fill="#02550d" stroke-width=".24668"/>
 <path transform="matrix(1 0 -.25882 .96593 0 0)" d="m59.299 12.6 7.7e-5 23.283h-22.49l-1.55e-4 8.2175h22.49l7.7e-5 23.283h7.9375l-7.7e-5 -23.283h22.49l1.55e-4 -8.2175h-22.49l-7.7e-5 -23.283h-7.9375z" fill="#8f9504" stroke-width=".26147"/>
</svg>
