<?xml version="1.0" encoding="UTF-8"?>
<svg width="400" height="300" version="1.1" viewBox="0 0 105.83 79.375" xmlns="http://www.w3.org/2000/svg">
 <path d="m0 0v31.746h6.6146v-6.6146h92.604v22.49h6.6146l-1e-5 -47.614z" fill="#590000" stroke-width=".3356"/>
 <path d="m105.83 79.61v-31.989h-6.6146v6.8536h-92.604l1e-5 -22.729h-6.6146v47.864z" fill="#000080" stroke-width=".3356"/>
 <rect x="6.6146" y="24.073" width="92.604" height="31.75" fill="#02550d" stroke-width=".24668"/>
 <rect x="1.8623" y=".23279" fill="#823d46" stroke-width=".26458"/>
 <path d="m23.812 33.073a7.9375 7.9375 0 0 0-7.9375 7.9375 7.9375 7.9375 0 0 0 7.9375 7.9375 7.9375 7.9375 0 0 0 7.9375-7.9375 7.9375 7.9375 0 0 0-7.9375-7.9375zm26.723 0a7.9375 7.9375 0 0 0-7.9375 7.9375 7.9375 7.9375 0 0 0 7.9375 7.9375 7.9375 7.9375 0 0 0 7.9375-7.9375 7.9375 7.9375 0 0 0-7.9375-7.9375zm28.84 0a7.9375 7.9375 0 0 0-7.9375 7.9375 7.9375 7.9375 0 0 0 7.9375 7.9375 7.9375 7.9375 0 0 0 7.9375-7.9375 7.9375 7.9375 0 0 0-7.9375-7.9375z" fill="#8f9504" stroke-width=".43348"/>
 <rect x="-131.56" y="-1.63" width="0" height="0" fill="#823d46" stroke-width=".26458"/>
</svg>
